<?xml version="1.0" standalone="no"?>
<!DOCTYPE svg PUBLIC "-//W3C//DTD SVG 20010904//EN"
 "http://www.w3.org/TR/2001/REC-SVG-20010904/DTD/svg10.dtd">
<svg version="1.0" xmlns="http://www.w3.org/2000/svg"
 width="16.000000pt" height="16.000000pt" viewBox="0 0 16.000000 16.000000"
 preserveAspectRatio="xMidYMid meet">
<metadata>
Created by potrace 1.11, written by Peter Selinger 2001-2013
</metadata>
<g transform="translate(0.000000,16.000000) scale(0.002857,-0.002857)"
fill="#000000" stroke="none">
<path d="M2745 5566 c-21 -14 -28 -18 -585 -339 -201 -115 -378 -218 -395
-228 -16 -10 -51 -30 -77 -44 -26 -13 -88 -49 -139 -80 -50 -30 -93 -55 -94
-55 -1 0 -54 -30 -116 -66 -63 -37 -133 -77 -156 -90 -94 -53 -339 -195 -353
-204 -8 -6 -22 -13 -30 -17 -8 -4 -43 -24 -78 -45 -34 -21 -64 -38 -66 -38 -2
0 -45 -25 -95 -55 -51 -30 -96 -55 -101 -55 -5 0 -25 -15 -44 -34 l-36 -33 0
-1377 c0 -878 4 -1384 10 -1396 5 -10 45 -38 87 -63 363 -210 771 -445 783
-450 8 -4 29 -16 45 -26 32 -20 252 -147 320 -186 54 -30 526 -303 545 -315 8
-5 69 -40 135 -78 66 -37 199 -114 296 -170 134 -77 184 -101 205 -99 24 3
418 221 546 303 21 13 40 24 43 24 3 0 22 11 43 24 20 13 217 127 437 254 220
126 414 238 432 248 18 11 98 57 179 104 81 47 171 99 199 115 29 17 107 62
174 100 67 39 130 75 139 80 9 6 59 34 110 63 50 30 97 62 102 72 7 12 10 503
10 1394 l0 1375 -22 25 c-13 13 -147 95 -298 182 -375 215 -562 323 -580 334
-8 6 -22 13 -30 17 -8 4 -60 34 -115 66 -55 33 -118 69 -140 82 -57 32 -97 54
-210 120 -55 32 -172 99 -260 150 -361 208 -504 291 -573 332 -41 24 -76 43
-78 43 -2 0 -22 11 -44 25 -44 28 -95 32 -125 11z"/>
</g>
</svg>
