<?xml version="1.0" encoding="utf-8"?>
<!-- Generator: Adobe Illustrator 18.0.0, SVG Export Plug-In . SVG Version: 6.00 Build 0)  -->
<!DOCTYPE svg PUBLIC "-//W3C//DTD SVG 1.1//EN" "http://www.w3.org/Graphics/SVG/1.1/DTD/svg11.dtd">
<svg version="1.1" id="Layer_1" xmlns="http://www.w3.org/2000/svg" xmlns:xlink="http://www.w3.org/1999/xlink" x="0px" y="0px"
	 viewBox="0 0 255.1 170.1" enable-background="new 0 0 255.1 170.1" xml:space="preserve">
<path fill="#333333" d="M251.6,124h-34.8c-0.5,0-0.9-0.4-0.9-0.9V69.3c0-0.5,0.4-0.9,0.9-0.9h34.8c0.5,0,0.9,0.4,0.9,0.9v53.8
	C252.4,123.6,252.1,124,251.6,124z M217.6,122.2h33v-52h-33V122.2z"/>
<path fill="#333333" d="M247.6,70.2c-0.5,0-0.9-0.4-0.9-0.9v-6.1h-25v6.1c0,0.5-0.4,0.9-0.9,0.9s-0.9-0.4-0.9-0.9v-7
	c0-0.5,0.4-0.9,0.9-0.9h26.8c0.5,0,0.9,0.4,0.9,0.9v7C248.4,69.8,248,70.2,247.6,70.2z"/>
<path fill="#333333" d="M238.5,90.3h-9.4c-0.3,0-0.6-0.2-0.8-0.4l-4.7-8.1c-0.2-0.3-0.2-0.6,0-0.9l4.7-8.1c0.2-0.3,0.4-0.4,0.8-0.4
	h9.4c0.3,0,0.6,0.2,0.8,0.4l4.7,8.1c0.2,0.3,0.2,0.6,0,0.9l-4.7,8.1C239.1,90.1,238.8,90.3,238.5,90.3z M229.6,88.6h8.4l4.2-7.3
	L238,74h-8.4l-4.2,7.3L229.6,88.6z"/>
<path fill="#333333" d="M233.8,90.3c-0.5,0-0.9-0.4-0.9-0.9V73.2c0-0.5,0.4-0.9,0.9-0.9s0.9,0.4,0.9,0.9v16.3
	C234.6,89.9,234.2,90.3,233.8,90.3z"/>
<path fill="#333333" d="M243.1,82.2h-18.8c-0.5,0-0.9-0.4-0.9-0.9s0.4-0.9,0.9-0.9h18.8c0.5,0,0.9,0.4,0.9,0.9
	C244,81.8,243.6,82.2,243.1,82.2z"/>
<path fill="#333333" d="M241,78.5h-14.5c-0.5,0-0.9-0.4-0.9-0.9s0.4-0.9,0.9-0.9H241c0.5,0,0.9,0.4,0.9,0.9S241.5,78.5,241,78.5z"/>
<path fill="#333333" d="M241,85.6h-14.5c-0.5,0-0.9-0.4-0.9-0.9c0-0.5,0.4-0.9,0.9-0.9H241c0.5,0,0.9,0.4,0.9,0.9
	C241.9,85.2,241.5,85.6,241,85.6z"/>
<path fill="#333333" d="M247.6,113.7h-26.4c-0.5,0-0.9-0.4-0.9-0.9v-12.3c0-0.5,0.4-0.9,0.9-0.9h26.4c0.5,0,0.9,0.4,0.9,0.9v12.3
	C248.5,113.3,248.1,113.7,247.6,113.7z M222,111.9h24.7v-10.5H222V111.9z"/>
<path fill="#333333" d="M247.6,107.5h-26.4c-0.5,0-0.9-0.4-0.9-0.9s0.4-0.9,0.9-0.9h26.4c0.5,0,0.9,0.4,0.9,0.9
	S248.1,107.5,247.6,107.5z"/>
<path fill="#333333" d="M240.8,113.7c-0.5,0-0.9-0.4-0.9-0.9v-12.3c0-0.5,0.4-0.9,0.9-0.9s0.9,0.4,0.9,0.9v12.3
	C241.6,113.3,241.2,113.7,240.8,113.7z"/>
<path fill="#333333" d="M228,113.7c-0.5,0-0.9-0.4-0.9-0.9v-12.3c0-0.5,0.4-0.9,0.9-0.9s0.9,0.4,0.9,0.9v12.3
	C228.9,113.3,228.5,113.7,228,113.7z"/>
<path fill="#333333" d="M234.4,113.7c-0.5,0-0.9-0.4-0.9-0.9v-12.3c0-0.5,0.4-0.9,0.9-0.9c0.5,0,0.9,0.4,0.9,0.9v12.3
	C235.3,113.3,234.9,113.7,234.4,113.7z"/>
<path fill="#333333" d="M216.8,124H182c-0.5,0-0.9-0.4-0.9-0.9V69.3c0-0.5,0.4-0.9,0.9-0.9h34.8c0.5,0,0.9,0.4,0.9,0.9v53.8
	C217.6,123.6,217.3,124,216.8,124z M182.9,122.2h33v-52h-33V122.2z"/>
<path fill="#333333" d="M212.7,70.2c-0.5,0-0.9-0.4-0.9-0.9v-6.1h-25v6.1c0,0.5-0.4,0.9-0.9,0.9s-0.9-0.4-0.9-0.9v-7
	c0-0.5,0.4-0.9,0.9-0.9h26.8c0.5,0,0.9,0.4,0.9,0.9v7C213.6,69.8,213.2,70.2,212.7,70.2z"/>
<path fill="#333333" d="M203.7,90.3h-9.4c-0.3,0-0.6-0.2-0.8-0.4l-4.7-8.1c-0.2-0.3-0.2-0.6,0-0.9l4.7-8.1c0.2-0.3,0.5-0.4,0.8-0.4
	h9.4c0.3,0,0.6,0.2,0.8,0.4l4.7,8.1c0.2,0.3,0.2,0.6,0,0.9l-4.7,8.1C204.3,90.1,204,90.3,203.7,90.3z M194.8,88.6h8.4l4.2-7.3
	l-4.2-7.3h-8.4l-4.2,7.3L194.8,88.6z"/>
<path fill="#333333" d="M199,90.3c-0.5,0-0.9-0.4-0.9-0.9V73.2c0-0.5,0.4-0.9,0.9-0.9s0.9,0.4,0.9,0.9v16.3
	C199.9,89.9,199.5,90.3,199,90.3z"/>
<path fill="#333333" d="M208.4,82.2h-18.8c-0.5,0-0.9-0.4-0.9-0.9s0.4-0.9,0.9-0.9h18.8c0.5,0,0.9,0.4,0.9,0.9
	C209.2,81.8,208.8,82.2,208.4,82.2z"/>
<path fill="#333333" d="M206.2,78.5h-14.5c-0.5,0-0.9-0.4-0.9-0.9s0.4-0.9,0.9-0.9h14.5c0.5,0,0.9,0.4,0.9,0.9
	C207.1,78.1,206.7,78.5,206.2,78.5z"/>
<path fill="#333333" d="M206.2,85.6h-14.5c-0.5,0-0.9-0.4-0.9-0.9c0-0.5,0.4-0.9,0.9-0.9h14.5c0.5,0,0.9,0.4,0.9,0.9
	C207.1,85.2,206.7,85.6,206.2,85.6z"/>
<path fill="#333333" d="M212.8,113.7h-26.4c-0.5,0-0.9-0.4-0.9-0.9v-12.3c0-0.5,0.4-0.9,0.9-0.9h26.4c0.5,0,0.9,0.4,0.9,0.9v12.3
	C213.7,113.3,213.3,113.7,212.8,113.7z M187.3,111.9H212v-10.5h-24.7V111.9z"/>
<path fill="#333333" d="M212.8,107.5h-26.4c-0.5,0-0.9-0.4-0.9-0.9s0.4-0.9,0.9-0.9h26.4c0.5,0,0.9,0.4,0.9,0.9
	S213.3,107.5,212.8,107.5z"/>
<path fill="#333333" d="M206,113.7c-0.5,0-0.9-0.4-0.9-0.9v-12.3c0-0.5,0.4-0.9,0.9-0.9s0.9,0.4,0.9,0.9v12.3
	C206.8,113.3,206.4,113.7,206,113.7z"/>
<path fill="#333333" d="M193.2,113.7c-0.5,0-0.9-0.4-0.9-0.9v-12.3c0-0.5,0.4-0.9,0.9-0.9s0.9,0.4,0.9,0.9v12.3
	C194.1,113.3,193.7,113.7,193.2,113.7z"/>
<path fill="#333333" d="M199.6,113.7c-0.5,0-0.9-0.4-0.9-0.9v-12.3c0-0.5,0.4-0.9,0.9-0.9s0.9,0.4,0.9,0.9v12.3
	C200.5,113.3,200.1,113.7,199.6,113.7z"/>
<path fill="#333333" d="M168.4,66.7H87.6c-0.5,0-0.9-0.4-0.9-0.9v-9.6c0-0.5,0.4-0.9,0.9-0.9h80.7c0.5,0,0.9,0.4,0.9,0.9v9.6
	C169.2,66.3,168.8,66.7,168.4,66.7z M88.5,64.9h78.9V57H88.5V64.9z"/>
<path fill="#333333" d="M162.8,104.8H93.2c-0.5,0-0.9-0.4-0.9-0.9V70.2h-1.7c-0.5,0-0.9-0.4-0.9-0.9v-3.5c0-0.5,0.4-0.9,0.9-0.9
	c0.5,0,0.9,0.4,0.9,0.9v2.6h1.7c0.5,0,0.9,0.4,0.9,0.9v33.8h67.8V69.3c0-0.5,0.4-0.9,0.9-0.9h1.7v-2.6c0-0.5,0.4-0.9,0.9-0.9
	s0.9,0.4,0.9,0.9v3.5c0,0.5-0.4,0.9-0.9,0.9h-1.7V104C163.7,104.4,163.3,104.8,162.8,104.8z"/>
<path fill="#333333" d="M152,70.2c-0.5,0-0.9-0.4-0.9-0.9v-3.5c0-0.5,0.4-0.9,0.9-0.9c0.5,0,0.9,0.4,0.9,0.9v3.5
	C152.8,69.8,152.5,70.2,152,70.2z"/>
<path fill="#333333" d="M154.6,70.2H152c-0.5,0-0.9-0.4-0.9-0.9s0.4-0.9,0.9-0.9h2.6c0.5,0,0.9,0.4,0.9,0.9
	C155.5,69.8,155.1,70.2,154.6,70.2z"/>
<path fill="#333333" d="M154.6,104.8c-0.5,0-0.9-0.4-0.9-0.9V69.3c0-0.5,0.4-0.9,0.9-0.9c0.5,0,0.9,0.4,0.9,0.9V104
	C155.5,104.4,155.1,104.8,154.6,104.8z"/>
<path fill="#333333" d="M104.3,70.2c-0.5,0-0.9-0.4-0.9-0.9v-3.5c0-0.5,0.4-0.9,0.9-0.9c0.5,0,0.9,0.4,0.9,0.9v3.5
	C105.2,69.8,104.8,70.2,104.3,70.2z"/>
<path fill="#333333" d="M104.3,70.2h-2.6c-0.5,0-0.9-0.4-0.9-0.9s0.4-0.9,0.9-0.9h2.6c0.5,0,0.9,0.4,0.9,0.9S104.8,70.2,104.3,70.2z
	"/>
<path fill="#333333" d="M101.7,104.8c-0.5,0-0.9-0.4-0.9-0.9V69.3c0-0.5,0.4-0.9,0.9-0.9c0.5,0,0.9,0.4,0.9,0.9V104
	C102.6,104.4,102.2,104.8,101.7,104.8z"/>
<path fill="#333333" d="M165.4,110.2H90.6c-0.5,0-0.9-0.4-0.9-0.9v-5.4c0-0.5,0.4-0.9,0.9-0.9h74.9c0.5,0,0.9,0.4,0.9,0.9v5.4
	C166.3,109.9,165.9,110.2,165.4,110.2z M91.5,108.5h73.1v-3.7H91.5V108.5z"/>
<path fill="#333333" d="M168.4,115.7H87.6c-0.5,0-0.9-0.4-0.9-0.9v-5.4c0-0.5,0.4-0.9,0.9-0.9h80.7c0.5,0,0.9,0.4,0.9,0.9v5.4
	C169.2,115.3,168.8,115.7,168.4,115.7z M88.5,113.9h78.9v-3.7H88.5C88.5,110.2,88.5,113.9,88.5,113.9z"/>
<path fill="#333333" d="M171.3,121.1H83.4c-0.5,0-0.9-0.4-0.9-0.9v-5.4c0-0.5,0.4-0.9,0.9-0.9h87.9c0.5,0,0.9,0.4,0.9,0.9v5.4
	C172.1,120.7,171.8,121.1,171.3,121.1z M84.2,119.3h86.2v-3.7H84.2C84.2,115.7,84.2,119.3,84.2,119.3z"/>
<path fill="#333333" d="M174.2,126.5H80.3c-0.5,0-0.9-0.4-0.9-0.9v-5.4c0-0.5,0.4-0.9,0.9-0.9h93.9c0.5,0,0.9,0.4,0.9,0.9v5.4
	C175.1,126.1,174.7,126.5,174.2,126.5L174.2,126.5z M81.2,124.7h92.1V121H81.2V124.7z"/>
<path fill="#333333" d="M168.4,115.7c-0.5,0-0.9-0.4-0.9-0.9v-5.4c0-0.5,0.4-0.9,0.9-0.9s0.9,0.4,0.9,0.9v5.4
	C169.2,115.3,168.8,115.7,168.4,115.7z"/>
<path fill="#333333" d="M182,124h-7.8c-0.5,0-0.9-0.4-0.9-0.9V65.8c0-0.5,0.4-0.9,0.9-0.9H186c0.5,0,0.9,0.4,0.9,0.9v3.5
	c0,0.5-0.4,0.9-0.9,0.9c-0.5,0-0.9-0.4-0.9-0.9v-2.6H175v55.6h6.9c0.5,0,0.9,0.4,0.9,0.9C182.9,123.6,182.5,124,182,124z"/>
<path fill="#333333" d="M37.8,124H3c-0.5,0-0.9-0.4-0.9-0.9V69.3c0-0.5,0.4-0.9,0.9-0.9h34.8c0.5,0,0.9,0.4,0.9,0.9v53.8
	C38.6,123.6,38.3,124,37.8,124z M3.8,122.2h33v-52h-33C3.8,70.2,3.8,122.2,3.8,122.2z"/>
<path fill="#333333" d="M33.8,70.2c-0.5,0-0.9-0.4-0.9-0.9v-6.1h-25v6.1c0,0.5-0.4,0.9-0.9,0.9s-0.9-0.4-0.9-0.9v-7
	c0-0.5,0.4-0.9,0.9-0.9h26.8c0.5,0,0.9,0.4,0.9,0.9v7C34.6,69.8,34.2,70.2,33.8,70.2z"/>
<path fill="#333333" d="M25.5,90.3h-9.4c-0.3,0-0.6-0.2-0.8-0.4l-4.7-8.1c-0.2-0.3-0.2-0.6,0-0.9l4.7-8.1c0.2-0.3,0.5-0.4,0.8-0.4
	h9.4c0.3,0,0.6,0.2,0.8,0.4l4.7,8.1c0.2,0.3,0.2,0.6,0,0.9l-4.7,8.1C26.1,90.1,25.8,90.3,25.5,90.3z M16.6,88.6H25l4.2-7.3L24.9,74
	h-8.4l-4.2,7.3L16.6,88.6z"/>
<path fill="#333333" d="M20.8,90.3c-0.5,0-0.9-0.4-0.9-0.9V73.2c0-0.5,0.4-0.9,0.9-0.9c0.5,0,0.9,0.4,0.9,0.9v16.3
	C21.7,89.9,21.3,90.3,20.8,90.3z"/>
<path fill="#333333" d="M30.2,82.2H11.4c-0.5,0-0.9-0.4-0.9-0.9s0.4-0.9,0.9-0.9h18.8c0.5,0,0.9,0.4,0.9,0.9
	C31,81.8,30.6,82.2,30.2,82.2z"/>
<path fill="#333333" d="M28,78.5H13.5c-0.5,0-0.9-0.4-0.9-0.9s0.4-0.9,0.9-0.9H28c0.5,0,0.9,0.4,0.9,0.9S28.5,78.5,28,78.5z"/>
<path fill="#333333" d="M28,85.6H13.5c-0.5,0-0.9-0.4-0.9-0.9c0-0.5,0.4-0.9,0.9-0.9H28c0.5,0,0.9,0.4,0.9,0.9
	C28.9,85.2,28.5,85.6,28,85.6z"/>
<path fill="#333333" d="M33.4,113.7H7c-0.5,0-0.9-0.4-0.9-0.9v-12.3c0-0.5,0.4-0.9,0.9-0.9h26.4c0.5,0,0.9,0.4,0.9,0.9v12.3
	C34.2,113.3,33.9,113.7,33.4,113.7z M7.8,111.9h24.7v-10.5H7.8V111.9z"/>
<path fill="#333333" d="M33.4,107.5H7c-0.5,0-0.9-0.4-0.9-0.9s0.4-0.9,0.9-0.9h26.4c0.5,0,0.9,0.4,0.9,0.9
	C34.2,107.1,33.9,107.5,33.4,107.5z"/>
<path fill="#333333" d="M13.8,113.7c-0.5,0-0.9-0.4-0.9-0.9v-12.3c0-0.5,0.4-0.9,0.9-0.9c0.5,0,0.9,0.4,0.9,0.9v12.3
	C14.7,113.3,14.3,113.7,13.8,113.7z"/>
<path fill="#333333" d="M26.6,113.7c-0.5,0-0.9-0.4-0.9-0.9v-12.3c0-0.5,0.4-0.9,0.9-0.9s0.9,0.4,0.9,0.9v12.3
	C27.4,113.3,27,113.7,26.6,113.7z"/>
<path fill="#333333" d="M20.2,113.7c-0.5,0-0.9-0.4-0.9-0.9v-12.3c0-0.5,0.4-0.9,0.9-0.9c0.5,0,0.9,0.4,0.9,0.9v12.3
	C21,113.3,20.6,113.7,20.2,113.7z"/>
<path fill="#333333" d="M72.6,124H37.8c-0.5,0-0.9-0.4-0.9-0.9V69.3c0-0.5,0.4-0.9,0.9-0.9h34.8c0.5,0,0.9,0.4,0.9,0.9v53.8
	C73.4,123.6,73,124,72.6,124z M38.6,122.2h33v-52h-33V122.2z"/>
<path fill="#333333" d="M68.5,70.2c-0.5,0-0.9-0.4-0.9-0.9v-6.1h-25v6.1c0,0.5-0.4,0.9-0.9,0.9c-0.5,0-0.9-0.4-0.9-0.9v-7
	c0-0.5,0.4-0.9,0.9-0.9h26.8c0.5,0,0.9,0.4,0.9,0.9v7C69.4,69.8,69,70.2,68.5,70.2z"/>
<path fill="#333333" d="M60.2,90.3h-9.4c-0.3,0-0.6-0.2-0.8-0.4l-4.7-8.1c-0.2-0.3-0.2-0.6,0-0.9l4.7-8.1c0.2-0.3,0.5-0.4,0.8-0.4
	h9.4c0.3,0,0.6,0.2,0.8,0.4l4.7,8.1c0.2,0.3,0.2,0.6,0,0.9L61,89.9C60.9,90.1,60.6,90.3,60.2,90.3z M51.4,88.6h8.4l4.2-7.3L59.7,74
	h-8.4l-4.2,7.3L51.4,88.6z"/>
<path fill="#333333" d="M55.6,90.3c-0.5,0-0.9-0.4-0.9-0.9V73.2c0-0.5,0.4-0.9,0.9-0.9s0.9,0.4,0.9,0.9v16.3
	C56.4,89.9,56,90.3,55.6,90.3z"/>
<path fill="#333333" d="M64.9,82.2H46.2c-0.5,0-0.9-0.4-0.9-0.9s0.4-0.9,0.9-0.9H65c0.5,0,0.9,0.4,0.9,0.9
	C65.8,81.8,65.4,82.2,64.9,82.2z"/>
<path fill="#333333" d="M62.8,78.5H48.3c-0.5,0-0.9-0.4-0.9-0.9s0.4-0.9,0.9-0.9h14.5c0.5,0,0.9,0.4,0.9,0.9S63.3,78.5,62.8,78.5z"
	/>
<path fill="#333333" d="M62.8,85.6H48.3c-0.5,0-0.9-0.4-0.9-0.9c0-0.5,0.4-0.9,0.9-0.9h14.5c0.5,0,0.9,0.4,0.9,0.9
	C63.7,85.2,63.3,85.6,62.8,85.6z"/>
<path fill="#333333" d="M68.2,113.7H41.7c-0.5,0-0.9-0.4-0.9-0.9v-12.3c0-0.5,0.4-0.9,0.9-0.9h26.4c0.5,0,0.9,0.4,0.9,0.9v12.3
	C69,113.3,68.6,113.7,68.2,113.7z M42.6,111.9h24.7v-10.5H42.6V111.9z"/>
<path fill="#333333" d="M68.2,107.5H41.7c-0.5,0-0.9-0.4-0.9-0.9s0.4-0.9,0.9-0.9h26.4c0.5,0,0.9,0.4,0.9,0.9S68.6,107.5,68.2,107.5
	z"/>
<path fill="#333333" d="M48.6,113.7c-0.5,0-0.9-0.4-0.9-0.9v-12.3c0-0.5,0.4-0.9,0.9-0.9c0.5,0,0.9,0.4,0.9,0.9v12.3
	C49.4,113.3,49.1,113.7,48.6,113.7z"/>
<path fill="#333333" d="M61.3,113.7c-0.5,0-0.9-0.4-0.9-0.9v-12.3c0-0.5,0.4-0.9,0.9-0.9c0.5,0,0.9,0.4,0.9,0.9v12.3
	C62.2,113.3,61.8,113.7,61.3,113.7z"/>
<path fill="#333333" d="M55,113.7c-0.5,0-0.9-0.4-0.9-0.9v-12.3c0-0.5,0.4-0.9,0.9-0.9c0.5,0,0.9,0.4,0.9,0.9v12.3
	C55.8,113.3,55.4,113.7,55,113.7z"/>
<path fill="#333333" d="M80.3,124h-7.8c-0.5,0-0.9-0.4-0.9-0.9c0-0.5,0.4-0.9,0.9-0.9h6.9V66.7h-10v2.6c0,0.5-0.4,0.9-0.9,0.9
	s-0.9-0.4-0.9-0.9v-3.5c0-0.5,0.4-0.9,0.9-0.9h11.8c0.5,0,0.9,0.4,0.9,0.9v57.3C81.2,123.6,80.8,124,80.3,124z"/>
<path fill="#333333" d="M137.7,104.6h-19.1c-0.3,0-0.6-0.2-0.8-0.4l-9.5-16.5c-0.2-0.3-0.2-0.6,0-0.9l9.5-16.5
	c0.2-0.3,0.5-0.4,0.8-0.4h19.1c0.3,0,0.6,0.2,0.8,0.4l9.5,16.5c0.2,0.3,0.2,0.6,0,0.9l-9.5,16.5C138.3,104.4,138,104.6,137.7,104.6
	L137.7,104.6z M119.1,102.8h18.1l9-15.6l-9-15.6h-18.1l-9,15.6C110.1,87.2,119.1,102.8,119.1,102.8z"/>
<path fill="#333333" d="M120.8,104.6c-0.5,0-0.9-0.4-0.9-0.9v-33c0-0.5,0.4-0.9,0.9-0.9s0.9,0.4,0.9,0.9v33
	C121.7,104.2,121.3,104.6,120.8,104.6z"/>
<path fill="#333333" d="M135.4,104.6c-0.5,0-0.9-0.4-0.9-0.9v-33c0-0.5,0.4-0.9,0.9-0.9c0.5,0,0.9,0.4,0.9,0.9v33
	C136.3,104.2,135.9,104.6,135.4,104.6z"/>
<path fill="#333333" d="M120.8,88.1h-11.7c-0.5,0-0.9-0.4-0.9-0.9s0.4-0.9,0.9-0.9h11.7c0.5,0,0.9,0.4,0.9,0.9
	C121.7,87.7,121.3,88.1,120.8,88.1z"/>
<path fill="#333333" d="M147.2,88.1h-11.8c-0.5,0-0.9-0.4-0.9-0.9s0.4-0.9,0.9-0.9h11.8c0.5,0,0.9,0.4,0.9,0.9
	S147.7,88.1,147.2,88.1z"/>
<path fill="#333333" d="M120.8,80.6h-7.3c-0.5,0-0.9-0.4-0.9-0.9c0-0.5,0.4-0.9,0.9-0.9h7.3c0.5,0,0.9,0.4,0.9,0.9
	C121.7,80.2,121.3,80.6,120.8,80.6z"/>
<path fill="#333333" d="M142.9,80.6h-7.1c-0.5,0-0.9-0.4-0.9-0.9c0-0.5,0.4-0.9,0.9-0.9h7.1c0.5,0,0.9,0.4,0.9,0.9
	C143.8,80.2,143.4,80.6,142.9,80.6z"/>
<path fill="#333333" d="M120.8,95h-7.3c-0.5,0-0.9-0.4-0.9-0.9c0-0.5,0.4-0.9,0.9-0.9h7.3c0.5,0,0.9,0.4,0.9,0.9
	C121.7,94.6,121.3,95,120.8,95z"/>
<path fill="#333333" d="M142.9,95h-7.5c-0.5,0-0.9-0.4-0.9-0.9c0-0.5,0.4-0.9,0.9-0.9h7.5c0.5,0,0.9,0.4,0.9,0.9
	C143.8,94.6,143.4,95,142.9,95z"/>
<path fill="#333333" d="M128.3,90.8c-1.1,0-2-0.9-2-2s0.9-2,2-2c1.1,0,2,0.9,2,2S129.4,90.8,128.3,90.8z M128.3,88.6
	c-0.1,0-0.2,0.1-0.2,0.2c0,0.1,0.1,0.2,0.2,0.2c0.1,0,0.2-0.1,0.2-0.2C128.5,88.7,128.4,88.6,128.3,88.6z"/>
<path fill="#333333" d="M102.9,48.5c0-0.3,0.2-0.5,0.5-0.5h0.1c0.3,0,0.4,0.1,0.6,0.3l2.1,2.7v-2.5c0-0.3,0.2-0.5,0.5-0.5
	c0.3,0,0.5,0.2,0.5,0.5v3.9c0,0.3-0.2,0.5-0.5,0.5l0,0c-0.3,0-0.4-0.1-0.6-0.3l-2.2-2.8v2.6c0,0.3-0.2,0.5-0.5,0.5
	c-0.3,0-0.5-0.2-0.5-0.5V48.5L102.9,48.5z M108.2,50.4c0-1.4,1.1-2.5,2.6-2.5s2.6,1.1,2.6,2.5l0,0c0,1.4-1.1,2.5-2.6,2.5
	C109.3,52.9,108.2,51.8,108.2,50.4z M112.3,50.4c0-0.8-0.6-1.6-1.5-1.6s-1.5,0.7-1.5,1.5l0,0c0,0.8,0.6,1.5,1.5,1.5
	C111.7,51.9,112.3,51.2,112.3,50.4z M114.4,48.5c0-0.3,0.2-0.5,0.5-0.5h1.4c1.5,0,2.6,1.1,2.6,2.4l0,0c0,1.4-1.1,2.5-2.6,2.5h-1.4
	c-0.3,0-0.5-0.2-0.5-0.5C114.4,52.3,114.4,48.5,114.4,48.5z M116.3,51.9c0.9,0,1.5-0.6,1.5-1.5l0,0c0-0.9-0.6-1.5-1.5-1.5h-0.8v3
	H116.3L116.3,51.9z M119.9,52.3v-3.8c0-0.3,0.2-0.5,0.5-0.5h2.7c0.3,0,0.5,0.2,0.5,0.5s-0.2,0.5-0.5,0.5h-2.2v1h1.9
	c0.3,0,0.5,0.2,0.5,0.5s-0.2,0.5-0.5,0.5H121v1h2.2c0.3,0,0.5,0.2,0.5,0.5c0,0.3-0.2,0.5-0.5,0.5h-2.8
	C120.1,52.8,119.9,52.6,119.9,52.3z M124.5,52.3c-0.1-0.1-0.2-0.2-0.2-0.4c0-0.3,0.2-0.5,0.5-0.5c0.1,0,0.2,0.1,0.3,0.1
	c0.4,0.3,0.8,0.5,1.3,0.5c0.5,0,0.7-0.2,0.7-0.5l0,0c0-0.3-0.2-0.4-1-0.6c-1-0.3-1.6-0.5-1.6-1.5l0,0c0-0.9,0.7-1.5,1.7-1.5
	c0.6,0,1.1,0.2,1.6,0.4c0.1,0.1,0.2,0.2,0.2,0.4c0,0.3-0.2,0.5-0.5,0.5c-0.1,0-0.2,0-0.3-0.1c-0.4-0.2-0.7-0.3-1-0.3
	c-0.4,0-0.6,0.2-0.6,0.4l0,0c0,0.3,0.2,0.4,1.1,0.6c1,0.3,1.6,0.6,1.6,1.5l0,0c0,1-0.7,1.5-1.8,1.5C125.7,52.9,125,52.7,124.5,52.3
	L124.5,52.3z M128.9,50.4c0-1.4,1.1-2.5,2.6-2.5c0.7,0,1.2,0.2,1.6,0.5c0.1,0.1,0.2,0.2,0.2,0.4c0,0.3-0.2,0.5-0.5,0.5
	c-0.2,0-0.2-0.1-0.3-0.1c-0.3-0.2-0.6-0.3-1-0.3c-0.8,0-1.4,0.7-1.4,1.5l0,0c0,0.8,0.6,1.5,1.4,1.5c0.5,0,0.8-0.1,1.1-0.4
	c0.1-0.1,0.2-0.1,0.3-0.1c0.3,0,0.5,0.2,0.5,0.5c0,0.2-0.1,0.3-0.2,0.4c-0.5,0.4-1,0.6-1.7,0.6C129.9,52.9,128.9,51.8,128.9,50.4
	L128.9,50.4z M134.3,48.4c0-0.3,0.2-0.5,0.5-0.5s0.5,0.2,0.5,0.5v1.4h2v-1.4c0-0.3,0.2-0.5,0.5-0.5s0.5,0.2,0.5,0.5v3.9
	c0,0.3-0.2,0.5-0.5,0.5s-0.5-0.2-0.5-0.5v-1.5h-2v1.5c0,0.3-0.2,0.5-0.5,0.5s-0.5-0.2-0.5-0.5V48.4z M139.4,50.4
	c0-1.4,1.1-2.5,2.6-2.5c1.5,0,2.6,1.1,2.6,2.5l0,0c0,1.4-1.1,2.5-2.6,2.5C140.5,52.9,139.4,51.8,139.4,50.4z M143.5,50.4
	c0-0.8-0.6-1.6-1.5-1.6s-1.5,0.7-1.5,1.5l0,0c0,0.8,0.6,1.5,1.5,1.5C142.9,51.9,143.5,51.2,143.5,50.4z M145.3,50.4
	c0-1.4,1.1-2.5,2.6-2.5c1.5,0,2.6,1.1,2.6,2.5l0,0c0,1.4-1.1,2.5-2.6,2.5C146.4,52.9,145.3,51.8,145.3,50.4z M149.4,50.4
	c0-0.8-0.6-1.6-1.5-1.6s-1.5,0.7-1.5,1.5l0,0c0,0.8,0.6,1.5,1.5,1.5S149.4,51.2,149.4,50.4z M151.5,48.4c0-0.3,0.2-0.5,0.5-0.5
	c0.3,0,0.5,0.2,0.5,0.5v3.4h2c0.3,0,0.5,0.2,0.5,0.5c0,0.3-0.2,0.5-0.5,0.5H152c-0.3,0-0.5-0.2-0.5-0.5V48.4L151.5,48.4z"/>
<path fill="#333333" d="M162.7,61.8h-70c-0.5,0-0.9-0.4-0.9-0.9c0-0.5,0.4-0.9,0.9-0.9h70c0.5,0,0.9,0.4,0.9,0.9
	C163.6,61.4,163.2,61.8,162.7,61.8z"/>
<path fill="#333333" d="M41.7,66.7h-8c-0.5,0-0.9-0.4-0.9-0.9c0-0.5,0.4-0.9,0.9-0.9h8c0.5,0,0.9,0.4,0.9,0.9
	C42.6,66.3,42.2,66.7,41.7,66.7z"/>
<path fill="#333333" d="M220.8,66.7h-8c-0.5,0-0.9-0.4-0.9-0.9c0-0.5,0.4-0.9,0.9-0.9h8c0.5,0,0.9,0.4,0.9,0.9
	C221.7,66.3,221.3,66.7,220.8,66.7z"/>
<g>
	<path fill="#333333" d="M105.8,37.8c0,0.3-0.1,0.5-0.2,0.9c-0.1,0.4-0.3,0.6-0.6,0.9c-0.3,0.3-0.6,0.5-1.1,0.7
		c-0.5,0.2-0.9,0.3-1.5,0.3c-0.4,0-0.8,0-1.2-0.1c-0.4-0.1-0.7-0.2-1-0.4c-0.3-0.2-0.6-0.4-0.8-0.7c-0.2-0.3-0.4-0.5-0.6-0.9
		c-0.2-0.3-0.3-0.7-0.3-1c-0.1-0.4-0.1-0.7-0.1-1.2c0-0.7,0.1-1.3,0.3-1.8c0.2-0.5,0.5-1,0.8-1.3c0.4-0.4,0.8-0.7,1.3-0.9
		c0.5-0.2,1-0.3,1.5-0.3c0.7,0,1.3,0.1,1.8,0.4c0.5,0.3,0.9,0.6,1.2,1c0.3,0.4,0.4,0.8,0.4,1.1c0,0.2-0.1,0.4-0.2,0.5
		c-0.1,0.1-0.3,0.2-0.5,0.2c-0.2,0-0.4-0.1-0.5-0.2c-0.1-0.1-0.2-0.3-0.4-0.5c-0.2-0.4-0.5-0.7-0.8-0.9c-0.3-0.2-0.7-0.3-1.1-0.3
		c-0.7,0-1.2,0.3-1.6,0.8c-0.4,0.5-0.6,1.3-0.6,2.2c0,0.6,0.1,1.2,0.3,1.6c0.2,0.4,0.4,0.7,0.8,1c0.3,0.2,0.7,0.3,1.2,0.3
		s0.9-0.1,1.2-0.4c0.3-0.2,0.6-0.6,0.7-1c0.1-0.2,0.2-0.4,0.3-0.5s0.3-0.2,0.5-0.2c0.2,0,0.4,0.1,0.5,0.2
		C105.7,37.4,105.8,37.6,105.8,37.8z"/>
	<path fill="#333333" d="M112.6,39.5l-0.4-1h-3.3l-0.4,1.1c-0.2,0.4-0.3,0.7-0.4,0.8c-0.1,0.1-0.3,0.2-0.5,0.2
		c-0.2,0-0.4-0.1-0.6-0.2s-0.2-0.3-0.2-0.5c0-0.1,0-0.2,0.1-0.3c0.1-0.1,0.1-0.3,0.2-0.5l2.1-5.3c0.1-0.2,0.1-0.3,0.2-0.6
		c0.1-0.2,0.2-0.4,0.3-0.5s0.2-0.3,0.4-0.3c0.2-0.1,0.3-0.1,0.6-0.1c0.2,0,0.4,0,0.6,0.1s0.3,0.2,0.4,0.3c0.1,0.1,0.2,0.3,0.2,0.4
		s0.1,0.4,0.2,0.6l2.1,5.3c0.2,0.4,0.3,0.7,0.3,0.9s-0.1,0.4-0.2,0.5c-0.2,0.2-0.4,0.2-0.6,0.2c-0.1,0-0.2,0-0.3-0.1
		c-0.1,0-0.2-0.1-0.2-0.2c-0.1-0.1-0.1-0.2-0.2-0.4C112.9,39.7,112.6,39.6,112.6,39.5z M109.3,37.2h2.5l-1.2-3.4L109.3,37.2z"/>
	<path fill="#333333" d="M118.4,39.2l-1.3-5.2v5.7c0,0.3-0.1,0.6-0.2,0.7c-0.1,0.2-0.3,0.2-0.6,0.2c-0.2,0-0.4-0.1-0.6-0.2
		c-0.1-0.2-0.2-0.4-0.2-0.7v-6.5c0-0.4,0.1-0.6,0.3-0.7s0.4-0.2,0.8-0.2h0.5c0.3,0,0.5,0,0.7,0.1c0.1,0.1,0.2,0.2,0.3,0.3
		c0.1,0.1,0.1,0.4,0.2,0.7l1.2,4.5l1.2-4.5c0.1-0.3,0.2-0.6,0.2-0.7s0.2-0.2,0.3-0.3c0.1-0.1,0.4-0.1,0.7-0.1h0.5
		c0.3,0,0.6,0.1,0.8,0.2s0.3,0.4,0.3,0.7v6.5c0,0.3-0.1,0.6-0.2,0.7c-0.1,0.2-0.3,0.2-0.6,0.2c-0.2,0-0.4-0.1-0.5-0.2
		c-0.1-0.2-0.2-0.4-0.2-0.7V34l-1.3,5.2c-0.1,0.3-0.2,0.6-0.2,0.7c-0.1,0.2-0.2,0.3-0.3,0.4c-0.1,0.1-0.3,0.2-0.6,0.2
		c-0.2,0-0.4,0-0.5-0.1c-0.1-0.1-0.2-0.2-0.3-0.3c-0.1-0.1-0.1-0.3-0.2-0.4C118.5,39.6,118.4,39.3,118.4,39.2z"/>
	<path fill="#333333" d="M128.3,37.2h-1.5v2.3c0,0.3-0.1,0.6-0.2,0.8c-0.2,0.2-0.4,0.3-0.6,0.3c-0.3,0-0.5-0.1-0.6-0.3
		c-0.1-0.2-0.2-0.4-0.2-0.7v-6.3c0-0.4,0.1-0.6,0.3-0.8c0.2-0.2,0.4-0.2,0.8-0.2h2.1c0.6,0,1.1,0,1.5,0.1c0.3,0.1,0.6,0.2,0.9,0.5
		c0.2,0.2,0.4,0.5,0.6,0.8c0.1,0.3,0.2,0.7,0.2,1.1c0,0.8-0.3,1.5-0.8,1.9C130.1,37,129.4,37.2,128.3,37.2z M127.9,33.4h-1.1v2.5
		h1.1c0.4,0,0.7,0,1-0.1c0.3-0.1,0.5-0.2,0.6-0.4s0.2-0.4,0.2-0.7c0-0.4-0.1-0.7-0.3-0.9C129.2,33.5,128.7,33.4,127.9,33.4z"/>
	<path fill="#333333" d="M132.9,39.5V33c0-0.3,0.1-0.6,0.2-0.8c0.2-0.2,0.4-0.3,0.6-0.3c0.3,0,0.5,0.1,0.6,0.2
		c0.2,0.2,0.2,0.4,0.2,0.8v6.5c0,0.3-0.1,0.6-0.2,0.8c-0.2,0.2-0.4,0.3-0.6,0.3c-0.2,0-0.4-0.1-0.6-0.3
		C132.9,40,132.9,39.9,132.9,39.5z"/>
	<path fill="#333333" d="M138.6,33l3.2,4.8V33c0-0.3,0.1-0.6,0.2-0.7c0.1-0.1,0.3-0.2,0.6-0.2c0.2,0,0.4,0.1,0.6,0.2
		c0.1,0.2,0.2,0.4,0.2,0.7v6.5c0,0.7-0.3,1.1-0.9,1.1c-0.1,0-0.3,0-0.4-0.1c-0.1,0-0.2-0.1-0.3-0.2c-0.1-0.1-0.2-0.2-0.3-0.3
		c-0.1-0.1-0.2-0.3-0.3-0.4l-3.1-4.8v4.8c0,0.3-0.1,0.6-0.2,0.7c-0.1,0.2-0.3,0.2-0.6,0.2c-0.2,0-0.4-0.1-0.6-0.2
		c-0.2-0.1-0.2-0.4-0.2-0.7v-6.3c0-0.3,0-0.5,0.1-0.6c0.1-0.2,0.2-0.3,0.4-0.4c0.2-0.1,0.3-0.2,0.5-0.2c0.1,0,0.3,0,0.4,0.1
		c0.1,0,0.2,0.1,0.3,0.2c0.1,0.1,0.2,0.2,0.2,0.3C138.4,32.8,138.5,32.9,138.6,33z"/>
	<path fill="#333333" d="M150.3,39.5l-0.4-1h-3.3l-0.4,1.1c-0.2,0.4-0.3,0.7-0.4,0.8c-0.1,0.1-0.3,0.2-0.5,0.2
		c-0.2,0-0.4-0.1-0.6-0.2s-0.2-0.3-0.2-0.5c0-0.1,0-0.2,0.1-0.3c0-0.1,0.1-0.3,0.2-0.5l2.1-5.3c0.1-0.2,0.1-0.3,0.2-0.6
		c0.1-0.2,0.2-0.4,0.3-0.5s0.2-0.3,0.4-0.3c0.2-0.1,0.3-0.1,0.6-0.1c0.2,0,0.4,0,0.6,0.1c0.2,0.1,0.3,0.2,0.4,0.3
		c0.1,0.1,0.2,0.3,0.2,0.4c0.1,0.2,0.1,0.4,0.2,0.6l2.1,5.3c0.2,0.4,0.3,0.7,0.3,0.9s-0.1,0.4-0.2,0.5c-0.2,0.2-0.4,0.2-0.6,0.2
		c-0.1,0-0.2,0-0.3-0.1c-0.1,0-0.2-0.1-0.2-0.2c-0.1-0.1-0.1-0.2-0.2-0.4C150.6,39.7,150.3,39.6,150.3,39.5z M147,37.2h2.5l-1.2-3.4
		L147,37.2z"/>
	<path fill="#333333" d="M159.5,37.9c0,0.5-0.1,0.9-0.4,1.3c-0.3,0.4-0.6,0.7-1.1,0.9s-1.1,0.3-1.8,0.3c-0.8,0-1.5-0.2-2-0.5
		c-0.4-0.2-0.7-0.5-0.9-0.9c-0.2-0.4-0.4-0.7-0.4-1.1c0-0.2,0.1-0.4,0.2-0.5c0.1-0.1,0.3-0.2,0.5-0.2c0.2,0,0.3,0.1,0.4,0.2
		s0.2,0.3,0.3,0.5c0.1,0.3,0.2,0.5,0.3,0.7c0.1,0.2,0.3,0.3,0.5,0.4c0.2,0.1,0.5,0.2,0.9,0.2c0.5,0,0.9-0.1,1.2-0.3
		c0.3-0.2,0.5-0.5,0.5-0.9c0-0.3-0.1-0.5-0.2-0.7s-0.4-0.3-0.6-0.4c-0.3-0.1-0.6-0.2-1.1-0.3c-0.6-0.1-1.1-0.3-1.5-0.5
		s-0.7-0.4-0.9-0.8c-0.2-0.4-0.4-0.7-0.4-1.2c0-0.5,0.1-0.9,0.4-1.2c0.2-0.4,0.6-0.6,1.1-0.8c0.5-0.2,1-0.3,1.7-0.3
		c0.5,0,0.9,0.1,1.3,0.2c0.4,0.1,0.7,0.3,0.9,0.5c0.2,0.2,0.4,0.4,0.5,0.7c0.1,0.2,0.2,0.5,0.2,0.7s-0.1,0.4-0.2,0.5
		c-0.1,0.2-0.3,0.2-0.5,0.2c-0.2,0-0.3,0-0.4-0.1c-0.1-0.1-0.2-0.3-0.3-0.5c-0.1-0.3-0.3-0.6-0.5-0.7c-0.2-0.2-0.5-0.3-1-0.3
		c-0.4,0-0.8,0.1-1,0.3c-0.3,0.2-0.4,0.4-0.4,0.7c0,0.2,0,0.3,0.1,0.4c0.1,0.1,0.2,0.2,0.4,0.3c0.2,0.1,0.3,0.2,0.5,0.2
		c0.2,0,0.4,0.1,0.8,0.2c0.5,0.1,0.9,0.2,1.3,0.4c0.4,0.1,0.7,0.3,1,0.5c0.3,0.2,0.5,0.4,0.6,0.7C159.4,37.2,159.5,37.5,159.5,37.9z
		"/>
</g>
<path fill="#333333" d="M174.2,43.6H166V27.8c0-0.4-0.3-0.8-0.8-0.8H91.8c-0.4,0-0.8,0.3-0.8,0.8v15.7H80.3c-0.5,0-0.9,0.4-0.9,0.9
	v78.7c0,0.5,0.4,0.9,0.9,0.9c0.5,0,0.9-0.4,0.9-0.9V45.3h92.1v77.8c0,0.5,0.4,0.9,0.9,0.9c0.5,0,0.9-0.4,0.9-0.9V44.5
	C175.1,44,174.7,43.6,174.2,43.6z M92.6,28.6h71.9v15H92.6V28.6z"/>
</svg>
