<?xml version="1.0" encoding="utf-8"?>
<!-- Generator: Adobe Illustrator 19.1.0, SVG Export Plug-In . SVG Version: 6.00 Build 0)  -->
<svg version="1.1" id="Camada_1" xmlns="http://www.w3.org/2000/svg" xmlns:xlink="http://www.w3.org/1999/xlink" x="0px" y="0px"
	 viewBox="0 0 841.9 595.3" style="enable-background:new 0 0 841.9 595.3;" xml:space="preserve">
<style type="text/css">
	.st0{fill:#333333;}
	.st1{fill:#629689;}
</style>
<g>
	<polygon class="st0" points="645.8,426.8 420.8,556.6 196.1,426.8 195.7,167.2 420.8,37.4 645.6,167.2 	"/>
</g>
<g>
	<g>
		<g id="top-stripes_1_">
			<g>
				<path class="st1" d="M495,92.3L421.8,50l0,0c-0.1-0.1-0.2-0.1-0.3-0.1l0,0l0,0h-0.1h-0.1c-0.1,0-0.2,0-0.3,0c0,0,0,0-0.1,0h-0.1
					c-0.1,0-0.3,0-0.4,0l0,0l0,0l0,0c-0.1,0-0.2,0.1-0.3,0.1l0,0l-72,41.6c-0.9,0.5-1.2,1.5-0.7,2.4c0.5,0.9,1.6,1.2,2.4,0.7
					l64-36.9l-27.2,34.7c-0.6,0.8-0.5,1.9,0.3,2.5c0.8,0.6,1.9,0.5,2.5-0.3l29.7-37.9v37c0,1,0.8,1.8,1.8,1.8c1.1,0,1.8-0.8,1.8-1.8
					v-37l29.7,37.9c0.4,0.5,0.9,0.7,1.4,0.7c0.4,0,0.8-0.1,1.1-0.4c0.8-0.6,0.9-1.7,0.3-2.5l-27.2-34.7l65.2,37.6
					c0.3,0.2,0.6,0.2,0.9,0.2c0.6,0,1.3-0.3,1.5-0.9C496.2,93.9,495.9,92.7,495,92.3L495,92.3z"/>
			</g>
		</g>
		<g>
			<g id="bottom-stripes_1_">
				<g>
					<path class="st1" d="M507.6,487.9c-0.6-1-1.9-1.4-2.8-0.8l-75.5,43.6l32.1-41c0.7-0.9,0.6-2.3-0.3-3s-2.3-0.6-3,0.3L423,531.9
						v-43.7c0-1.1-0.9-2.2-2.2-2.2c-1.3,0-2.2,0.9-2.2,2.2v43.7l-35.1-44.7c-0.7-0.9-2-1-3-0.3c-0.9,0.7-1,2-0.3,3l32.1,41l-77-44.4
						c-1-0.6-2.3-0.2-2.8,0.8s-0.2,2.3,0.8,2.8l86.4,49.9c0,0,0,0,0.1,0s0.1,0.1,0.2,0.1c0,0,0,0,0.1,0c0,0,0,0,0.1,0h0.1
						c0.1,0,0.3,0.1,0.5,0.1l0,0l0,0l0,0l0,0c0.2,0,0.3,0,0.5-0.1h0.1h0.1c0.1,0,0.1-0.1,0.2-0.1c0,0,0,0,0.1,0l85.1-49.1
						C507.8,490.3,508.2,488.9,507.6,487.9z"/>
				</g>
			</g>
			<g id="bottom-dot-right_1_">
				<g>
					<ellipse class="st1" cx="513.3" cy="476.4" rx="2.6" ry="2.5"/>
				</g>
			</g>
			<g id="bottom-dot-left_1_">
				<g>
					<ellipse class="st1" cx="327.1" cy="476.4" rx="2.6" ry="2.5"/>
				</g>
			</g>
			<g id="letter-left_1_">
				<path class="st1" d="M367.3,473.5c0.2-1.5,1-2.7,2.4-3.6c1.8-1.3,3.5-1.6,5.2-1c0.9,0.3,1.6,0.8,2.1,1.5l-2.2,1.6
					c-0.5-0.4-1-0.7-1.4-0.8c-0.7-0.2-1.5,0-2.3,0.5c-0.8,0.6-1.2,1.3-1.2,2.3s0.4,2.1,1.3,3.3s1.7,1.9,2.6,2.2
					c0.9,0.3,1.7,0.1,2.5-0.4c0.8-0.5,1.2-1.2,1.2-2c0-0.4-0.1-1-0.3-1.6l2.2-1.6c0.6,1.3,0.8,2.6,0.5,3.9c-0.3,1.3-1,2.4-2.3,3.2
					c-1.5,1.1-3.1,1.4-4.6,1c-1.6-0.4-3-1.4-4.2-3.2C367.5,477,367,475.2,367.3,473.5z"/>
			</g>
			<g id="letter-middle_1_">
				<path class="st1" d="M424.1,470.6c-0.8,0.6-1.9,1-3.3,1h-2.7v4.7h-2.7v-13.1h5.6c1.3,0,2.3,0.3,3.1,1c0.8,0.7,1.2,1.7,1.2,3.1
					C425.2,468.9,424.9,470,424.1,470.6z M422,465.9c-0.3-0.3-0.8-0.4-1.5-0.4h-2.5v3.9h2.5c0.6,0,1.1-0.2,1.5-0.5s0.5-0.8,0.5-1.5
					S422.3,466.2,422,465.9z"/>
			</g>
			<g id="letter-right_1_">
				<path class="st1" d="M464.4,477.2c-0.3,0.5-0.4,1-0.4,1.4c0.1,0.7,0.5,1.4,1.4,2c0.5,0.4,1,0.6,1.4,0.7c0.8,0.2,1.4,0,1.8-0.6
					c0.2-0.4,0.3-0.7,0.1-1.2c-0.2-0.4-0.6-0.9-1.1-1.5l-1-1.1c-1-1.1-1.6-1.9-1.8-2.5c-0.4-1-0.2-2,0.5-3.1c0.7-1,1.6-1.5,2.7-1.7
					s2.4,0.3,3.8,1.2c1.1,0.8,1.9,1.8,2.3,3c0.4,1.2,0.2,2.3-0.6,3.5l-2.2-1.5c0.4-0.7,0.4-1.3,0.1-2c-0.2-0.4-0.6-0.8-1.1-1.2
					c-0.6-0.4-1.1-0.6-1.7-0.6c-0.5,0-0.9,0.2-1.2,0.6c-0.3,0.4-0.3,0.8-0.1,1.2c0.1,0.3,0.5,0.8,1.1,1.4l1.6,1.8
					c0.7,0.8,1.1,1.5,1.3,2.1c0.3,1,0.1,1.9-0.6,2.9c-0.7,1-1.6,1.5-2.9,1.6c-1.2,0.1-2.5-0.3-3.9-1.3c-1.4-1-2.3-2.1-2.7-3.3
					s-0.2-2.4,0.6-3.5L464.4,477.2z"/>
			</g>
		</g>
	</g>
	<g>
		<g>
			<g>
				<path class="st1" d="M215,438.5c-0.3,0-0.6-0.2-0.7-0.6c-0.1-0.4,0.2-0.7,0.6-0.8l82.6-16.3H187.4c-0.4,0-0.7-0.3-0.7-0.7
					c0-0.4,0.3-0.7,0.7-0.7h117.3c0.4,0,0.7,0.3,0.7,0.6c0,0.4-0.2,0.7-0.6,0.8l-89.6,17.7C215.1,438.5,215.1,438.5,215,438.5z"/>
			</g>
		</g>
		<g>
			<g>
				<path class="st1" d="M627.6,438c0,0-0.1,0-0.1,0L537,421.1c-0.4-0.1-0.6-0.4-0.6-0.8c0-0.4,0.3-0.6,0.7-0.6h117.2
					c0.4,0,0.7,0.3,0.7,0.7c0,0.4-0.3,0.7-0.7,0.7H544.6l83.1,15.5c0.4,0.1,0.6,0.4,0.6,0.8C628.2,437.8,627.9,438,627.6,438z"/>
			</g>
		</g>
	</g>
	<g>
		<g>
			<g>
				<path class="st1" d="M658.5,154.8L425.1,20.2c-2.6-1.5-5.9-1.5-8.6,0L183.1,154.8c-2.6,1.5-4.3,4.4-4.3,7.4v269.5
					c0,3,1.6,5.9,4.3,7.4l233.4,134.7c1.4,0.8,2.8,1.1,4.3,1.1c1.5,0,3-0.4,4.3-1.1l233.4-134.7c2.6-1.5,4.3-4.4,4.3-7.4V162.3
					C662.7,159.2,661.1,156.3,658.5,154.8z M645.8,426.8l-225,129.8L196.1,426.8l-0.4-259.7L420.8,37.4l224.8,129.8L645.8,426.8z
					 M645.6,287.3v0.6l-0.4-0.6H645.6z"/>
			</g>
		</g>
	</g>
	<g>
		<g>
			<g>
				<path class="st1" d="M223.4,420.6c-0.3,0-0.5-0.2-0.5-0.5v-60l-15.9,4.8v55.2c0,0.3-0.2,0.5-0.5,0.5c-0.3,0-0.5-0.2-0.5-0.5
					v-55.6c0-0.2,0.1-0.4,0.3-0.4l16.8-5.1c0.1,0,0.3,0,0.4,0.1c0.1,0.1,0.2,0.2,0.2,0.4v60.7C223.9,420.4,223.7,420.6,223.4,420.6z
					"/>
			</g>
		</g>
		<g>
			<g>
				<path class="st1" d="M210.7,363.8c-0.3,0-0.5-0.2-0.5-0.5v-27l-16.5-7.6c-0.2-0.1-0.3-0.4-0.2-0.6c0.1-0.2,0.4-0.3,0.6-0.2
					l16.8,7.7c0.2,0.1,0.3,0.2,0.3,0.4v27.3C211.2,363.5,210.9,363.8,210.7,363.8z"/>
			</g>
		</g>
		<g>
			<g>
				<path class="st1" d="M240.2,420.6c-0.3,0-0.5-0.2-0.5-0.5v-55.2l-16.5-5c-0.2-0.1-0.4-0.3-0.3-0.6c0.1-0.2,0.3-0.4,0.6-0.3
					l16.8,5.1c0.2,0.1,0.3,0.2,0.3,0.4v55.6C240.7,420.4,240.5,420.6,240.2,420.6z"/>
			</g>
		</g>
		<g>
			<g>
				<path class="st1" d="M254.4,420.6c-0.1,0-0.2,0-0.3-0.1c-0.2-0.2-0.2-0.5,0-0.7l3-2.9c0.5-0.5,0.8-1.3,0.5-2l-0.8-2.6
					c-0.2-0.6-0.2-1.3,0.1-1.9l0.8-2.1c0.2-0.5,0.2-1,0-1.4l-0.8-1.8c-0.2-0.6-0.3-1.2-0.2-1.8c0.1-0.6,0-1.1-0.4-1.6
					c-0.4-0.5-1.1-0.8-1.8-0.8h-0.3c-1.2,0-2.3-0.7-2.8-1.7l-2-3.9c-0.3-0.5-0.7-0.9-1.3-1.1l-5.5-1.6c-0.2-0.1-0.4-0.1-0.6-0.1
					h-1.5c-0.2,0-0.3,0-0.4,0c-0.3,0-0.4-0.3-0.4-0.5c0-0.3,0.3-0.4,0.5-0.4c0.1,0,0.2,0,0.3,0h1.5c0.3,0,0.6,0,0.9,0.1l5.5,1.6
					c0.8,0.2,1.5,0.8,1.9,1.6l2,3.9c0.4,0.7,1.1,1.2,2,1.2h0.3c1,0,1.9,0.4,2.5,1.2c0.5,0.7,0.7,1.6,0.6,2.4
					c-0.1,0.4-0.1,0.8,0.1,1.2l0.8,1.8c0.3,0.7,0.3,1.5,0,2.2l-0.8,2.1c-0.2,0.4-0.2,0.8,0,1.2l0.8,2.6c0.3,1,0,2.2-0.8,2.9l-3,2.9
					C254.7,420.5,254.5,420.6,254.4,420.6z"/>
			</g>
		</g>
		<g>
			<g>
				<path class="st1" d="M633.6,420.6c-0.3,0-0.5-0.2-0.5-0.5v-55.3l-15.9-4.8v60.1c0,0.3-0.2,0.5-0.5,0.5s-0.5-0.2-0.5-0.5v-60.7
					c0-0.1,0.1-0.3,0.2-0.4c0.1-0.1,0.3-0.1,0.4-0.1l16.8,5.1c0.2,0.1,0.3,0.2,0.3,0.4v55.6C634,420.4,633.8,420.6,633.6,420.6z"/>
			</g>
		</g>
		<g>
			<g>
				<path class="st1" d="M629.5,363.8c-0.3,0-0.5-0.2-0.5-0.5V336c0-0.2,0.1-0.3,0.3-0.4l16.8-7.7c0.2-0.1,0.5,0,0.6,0.2
					c0.1,0.2,0,0.5-0.2,0.6l-16.5,7.6v27C630,363.5,629.8,363.8,629.5,363.8z"/>
			</g>
		</g>
		<g>
			<g>
				<path class="st1" d="M600,420.6c-0.3,0-0.5-0.2-0.5-0.5v-55.6c0-0.2,0.1-0.4,0.3-0.4l16.8-5.1c0.2-0.1,0.5,0.1,0.6,0.3
					c0.1,0.2-0.1,0.5-0.3,0.6l-16.5,5v55.3C600.4,420.4,600.2,420.6,600,420.6z"/>
			</g>
		</g>
		<g>
			<g>
				<path class="st1" d="M586.1,420.9c-0.1,0-0.2,0-0.3-0.1l-3.4-3.2c-0.8-0.8-1.1-1.9-0.8-2.9l0.8-2.6c0.1-0.4,0.1-0.8,0-1.2
					l-0.8-2.1c-0.3-0.7-0.3-1.5,0-2.2l0.8-1.8c0.2-0.4,0.2-0.8,0.1-1.2c-0.2-0.8,0-1.7,0.5-2.4c0.6-0.7,1.5-1.2,2.5-1.2h0.3
					c0.8,0,1.6-0.5,2-1.2l2-3.9c0.4-0.8,1.1-1.3,1.9-1.6l5.5-1.6c0.3-0.1,0.6-0.1,0.9-0.1h1.5c0.1,0,0.2,0,0.3,0
					c0.3,0,0.5,0.1,0.5,0.4c0,0.3-0.1,0.5-0.4,0.5c-0.1,0-0.3,0-0.4,0h-1.5c-0.2,0-0.4,0-0.6,0.1l-5.5,1.6c-0.6,0.2-1.1,0.6-1.3,1.1
					l-2,3.9c-0.5,1-1.6,1.7-2.8,1.7h-0.3c-0.7,0-1.3,0.3-1.8,0.8c-0.4,0.5-0.5,1-0.4,1.6c0.1,0.6,0.1,1.2-0.2,1.8l-0.8,1.8
					c-0.2,0.5-0.2,1,0,1.4l0.8,2.1c0.2,0.6,0.3,1.3,0.1,1.9l-0.8,2.6c-0.2,0.7,0,1.4,0.5,2l3.4,3.2c0.2,0.2,0.2,0.5,0,0.7
					C586.4,420.9,586.2,420.9,586.1,420.9z"/>
			</g>
		</g>
	</g>
	<g>
		<g>
			<path class="st1" d="M630.3,252.5c-1-4.5-4.2-8.3-8.5-10.1c0-10.8-8.8-19.5-19.6-19.5c-9.5,0-17.5,6.7-19.2,16
				c-0.8-0.1-1.6-0.2-2.4-0.2c-7.7,0-13.9,6.3-13.9,13.9c0,0.3,0.2,0.5,0.5,0.5h62.8c0.1,0,0.3-0.1,0.4-0.2
				C630.3,252.8,630.3,252.7,630.3,252.5z M567.5,252.2c0.2-7,6-12.5,13-12.5c0.9,0,1.8,0.1,2.7,0.3c0.1,0,0.3,0,0.4-0.1
				c0.1-0.1,0.2-0.2,0.2-0.3c1.5-9.1,9.2-15.7,18.4-15.7c10.3,0,18.6,8.4,18.6,18.6l0,0.3c0,0.2,0.1,0.4,0.3,0.4c4,1.6,7,4.9,8.1,9
				H567.5z"/>
		</g>
		<g>
			<path class="st1" d="M599.4,223.6c-2.7-11.4-12.8-19.4-24.6-19.4c-12.3,0-22.7,8.7-24.9,20.8c-1.1-0.2-2.2-0.3-3.3-0.3
				c-9.9,0-18,8.1-18,18c0,0.3,0.2,0.5,0.5,0.5h42.4c0.1,0,0.2,0,0.3-0.1c3.1-2.8,7.3-3.9,11.4-3.1c0.1,0,0.3,0,0.4-0.1
				c0.1-0.1,0.2-0.2,0.2-0.3c1.3-7.8,7.3-14,15.2-15.4c0.1,0,0.2-0.1,0.3-0.2C599.4,223.9,599.4,223.7,599.4,223.6z M583,238.9
				C583,238.9,583,238.9,583,238.9C583,238.9,583,238.9,583,238.9c-1.1-0.2-2.1-0.2-3.1-0.2c-3.1,0.2-6.1,1.4-8.5,3.5h0h-41.7h0
				c0.2-9.2,7.8-16.6,17-16.6c0,0,0,0,0,0c0,0,0,0,0,0c1.2,0,2.4,0.1,3.6,0.4c0,0,0.1,0,0.1,0c0.1,0,0.1,0,0.2-0.1
				c0.1-0.1,0.2-0.2,0.2-0.3c1.9-11.9,12-20.5,24-20.5c0,0,0,0,0,0c0,0,0,0,0,0c11.1,0,20.8,7.5,23.5,18.2
				C590.6,224.9,584.5,231.1,583,238.9z"/>
		</g>
		<g>
			<path class="st1" d="M301.3,210.7c-1.1-4.8-4.5-8.8-9.1-10.7v0c0-11.4-9.3-20.7-20.7-20.7c-6.5,0-12.5,3-16.5,8.2
				c-0.1,0.1-0.1,0.3-0.1,0.4c0.1,0.1,0.2,0.2,0.3,0.3c10.9,2.2,19,11.6,19.6,22.7c0,0.2,0.2,0.4,0.4,0.4h25.5
				c0.1,0,0.3-0.1,0.3-0.2C301.3,210.9,301.3,210.8,301.3,210.7z M275.7,210.4c-0.8-11.1-8.8-20.4-19.6-22.9
				c3.8-4.7,9.4-7.3,15.4-7.3c11,0,19.9,8.9,19.9,19.9l0,0.3c0,0.2,0.1,0.3,0.3,0.4c4.3,1.7,7.5,5.3,8.7,9.7H275.7z"/>
		</g>
		<g>
			<path class="st1" d="M287,225.5c-1.4-5.9-5.6-10.8-11.2-13.2l0-0.1c0-14.1-11.4-25.5-25.5-25.5c-12.5,0-23,8.8-25.1,21
				c-1.1-0.2-2.2-0.3-3.4-0.3c-10,0-18.1,8.1-18.1,18.1c0,0.2,0.2,0.4,0.4,0.4h82.5c0.1,0,0.3-0.1,0.3-0.2
				C287,225.8,287.1,225.6,287,225.5z M204.5,225.2c0.2-9.3,7.9-16.9,17.3-16.9c1.2,0,2.4,0.1,3.6,0.4c0.1,0,0.2,0,0.3-0.1
				c0.1-0.1,0.2-0.2,0.2-0.3c1.9-12,12.2-20.7,24.4-20.7c13.6,0,24.7,11.1,24.7,24.7l0,0.4c0,0.2,0.1,0.3,0.3,0.4
				c5.4,2.1,9.4,6.6,10.8,12.2H204.5z"/>
		</g>
	</g>
</g>
<g>
	<g>
		<g>
			<path class="st0" d="M420.8,340c-0.1,0-0.1,0-0.2,0h-8.3c-0.4,0-0.7,0.2-0.7,0.6c0,3.4-2.4,7.1-5.8,7.1c-0.4,0-0.7,0.3-0.7,0.7
				v10.5c0,0.4,0.3,0.8,0.7,0.8c3.4,0,5.8,4,5.8,7.4c0,0.4,0.3,1,0.7,1h8.3c0.1,0,0.2,0,0.2-0.1c0.1,0,0.1,0.1,0.2,0.1h8.3
				c0.4,0,0.7-0.6,0.7-1c0-3.4,2.6-7.3,6-7.3c0.4,0,1-0.5,1-0.9v-10.5c0-0.4-0.6-0.8-1-0.8c-3.4,0-5.9-3.7-5.9-7
				c0-0.4-0.4-0.6-0.8-0.6H421C420.9,340,420.8,340,420.8,340z M435,349.1v9c-4,0.4-6.1,3.8-6.4,7.8H421c-0.1,0-0.2,0-0.2,0
				c-0.1,0-0.1,0-0.2,0h-7.6c-0.3-4-1.9-7.4-5.9-7.8v-9c4-0.4,5.6-4.1,5.9-8.1h7.6c0.1,0,0.2,0,0.2-0.1c0.1,0,0.1,0.1,0.2,0.1h7.6
				C428.9,345,431,348.7,435,349.1z"/>
		</g>
		<g>
			<path class="st0" d="M383,215.1v8.1c-1,0.1-2,0.2-2.1,0.2c-0.4,0-0.9,0.4-0.9,0.8c0,0.4,0.2,0.7,0.6,0.7c0,0,0,0,0,0
				c0,0,0.6-0.1,1.7-0.2c0.1,0.1,0.3,0.2,0.4,0.2c0.2,0,0.4-0.1,0.5-0.3c6.2-0.6,22-1.9,37.2-2.1c0.1,0,0.1,0,0.2-0.1
				c0.1,0,0.1,0.1,0.2,0.1c15.2,0.2,31,1.5,37.2,2.1c0.1,0.2,0.3,0.3,0.5,0.3c0.2,0,0.3-0.1,0.4-0.2c1.1,0.1,1.7,0.2,1.7,0.2
				c0,0,0,0,0.1,0c0.4,0,0.7-0.3,0.7-0.7c0-0.4-0.5-0.8-0.8-0.8c0,0-0.8-0.1-1.8-0.2v-8.1c0-0.4-0.1-0.8-0.5-0.8s-0.5,0.3-0.5,0.8
				v7.9c-6-0.6-22-2.1-37-2.1c0,0,0,0,0,0c-0.1,0-0.1,0-0.2,0c-0.1,0,0.1-0.1,0-0.1c-15,0.2-30.8,1.5-36.8,2.1v-7.9
				c0-0.4-0.1-0.8-0.5-0.8S383,214.7,383,215.1z"/>
		</g>
		<g>
			<path class="st0" d="M421,233c-0.1,0-0.2,0-0.3,0.1c-0.1,0-0.1,0-0.2,0c-19.6,0.2-41.7,2.4-42,2.4c-0.4,0-0.7,0.4-0.6,0.8
				c0,0.4,0.3,0.7,0.7,0.7c0,0,0,0,0.1,0c0.2,0,22.3-2.1,41.9-2.4c0.1,0,0.2,0,0.2-0.1c0.1,0,0.1,0.1,0.2,0.1
				c19.6,0.2,41.6,2.4,41.9,2.4c0,0,0,0,0.1,0c0.4,0,0.7-0.3,0.7-0.7c0-0.4-0.2-0.8-0.6-0.8C462.8,235.4,440.6,233,421,233L421,233z
				"/>
		</g>
		<g>
			<path class="st0" d="M440,370v-32.6c0-0.4-0.4-0.3-0.8-0.3H421c-0.1,0-0.2,0-0.2,0.1c-0.1,0-0.1-0.1-0.2-0.1h-18.2
				c-0.4,0-0.3-0.1-0.3,0.3V370c0,0.4,0,1,0.3,1h18.2c0.1,0,0.2,0,0.2-0.1c0.1,0,0.1,0.1,0.2,0.1h18.2C439.6,371,440,370.4,440,370z
				 M439,369h-18c-0.1,0-0.2,0-0.2,0.1c-0.1,0-0.1-0.1-0.2-0.1H403v-31h17.5c0.1,0,0.2,0,0.2-0.1c0.1,0,0.1,0.1,0.2,0.1h18V369z"/>
		</g>
		<g>
			<path class="st0" d="M438,263.2c-0.1,0-9.7-1.2-16.9-1.2c-0.1,0-0.2,0-0.3,0.1c-0.1,0-0.2-0.1-0.3-0.1c-7.1,0-16.7,1.2-16.8,1.2
				c-0.4,0-0.7,0.4-0.7,0.7v42.3c0,0.2,0.2,0.4,0.3,0.6c0.1,0.1,0.3,0.2,0.5,0.2c0,0,0.1,0,0.1,0c0.1,0,8-1.2,16.5-1.2
				c0.1,0,0.2,0,0.2-0.1c0.1,0,0.2,0.1,0.2,0.1c8.5,0,16.4,1.2,16.5,1.2c0,0,0.1,0,0.1,0c0.2,0,0.7-0.1,0.8-0.2
				c0.2-0.1,0.6-0.4,0.6-0.6v-42.3C439,263.5,438.4,263.2,438,263.2z M437,305.4c-2-0.3-8.9-1.1-16-1.1c-0.1,0-0.2,0-0.3,0.1
				c-0.1,0,0-0.1-0.1-0.1c-7,0-13.7,0.8-15.7,1.1v-40.8c2-0.3,9.7-1.1,15.7-1.1c0.1,0,0.1,0,0.1-0.1c0.1,0,0.1,0.1,0.2,0.1
				c6,0,13.9,0.9,15.9,1.1V305.4z"/>
		</g>
		<g>
			<path class="st0" d="M391.9,135.9c0.1,0.4,0.4,0.6,0.7,0.6c0,0,0.1,0,0.1,0c0.1,0,13.1-2.5,27.8-2.5c0.1,0,0.2,0,0.2-0.1
				c0.1,0,0.1,0.1,0.2,0.1c14.7,0,27.7,2.4,27.8,2.5c0,0,0.1,0,0.1,0c0.3,0,0.6-0.3,0.7-0.6c0.1-0.4-0.2-0.8-0.6-0.9
				c-0.1,0-13.2-2.5-28.1-2.5c-0.1,0-0.2,0-0.2,0.1c-0.1,0-0.1-0.1-0.2-0.1c-14.9,0-27.9,2.5-28.1,2.5
				C392.1,135.1,391.8,135.5,391.9,135.9z"/>
		</g>
		<g>
			<path class="st0" d="M384,183.2C384,183.2,384.1,183.2,384,183.2c0.3,0,24.3-3,36.5-3c0.1,0,0.2,0,0.2-0.1c0.1,0,0.1,0.1,0.2,0.1
				c12.2,0,36.2,3,36.4,3c0,0,0.1,0,0.1,0c0.2,0,0.4-0.1,0.5-0.2c0.2-0.2,0.2-0.4,0.2-0.6l-2.9-45.8c-0.1-1.1-0.5-1.9-1.2-2.8
				c-1.1-1.3-2.6-1.8-4.3-1.8h-1.9c-0.4,0-0.7,0.1-0.7,0.5s0.3,0.5,0.7,0.5h1.9c1.3,0,2.4,0.5,3.2,1.5c0.5,0.6,0.8,1.4,0.9,2.2
				l2.8,44.9c-4.4-0.5-24.8-2.9-35.8-2.9c-0.1,0-0.2,0-0.2,0c-0.1,0-0.1-0.1-0.2-0.1c-11,0-31.4,2.4-35.8,2.9l2.8-44.9
				c0.1-0.8,0.3-1.5,0.9-2.2c0.8-1,2-1.5,3.2-1.5h1.9c0.4,0,0.7-0.1,0.7-0.5s-0.3-0.5-0.7-0.5h-1.9c-1.7,0-3.2,0.5-4.3,1.8
				c-0.7,0.9-1.1,1.8-1.2,2.9l-2.9,45.7c0,0.2,0.1,0.4,0.2,0.6C383.7,183.1,383.8,183.2,384,183.2z"/>
		</g>
		<g>
			<path class="st0" d="M504.3,239.6c-0.7-5.9-7.3-64.2-8.7-71c-1.3-6.3-7.9-8.1-9.8-8.5c-0.5-2.1-2.6-9.7-9.2-15.7
				c-7.6-7-14.4-8.9-16.2-9.3l-0.1-0.7c-0.3-1.4-1.4-2.4-2.7-2.5l-0.2,0l-1-1.9c-0.6-1.2-1.8-2.1-3.1-2.2c-2.7-0.4-7.2-0.6-9.8,1.8
				c-2.1-0.2-15.1-1.5-21.6-1.5l-2.8,0c-6.5,0.1-18.5,1.3-20.5,1.5c-2.6-2.4-7.3-2.1-10-1.8c-1.3,0.2-2.5,1-3.1,2.2l-0.9,1.9l-0.2,0
				c-1.4,0.1-2.5,1.1-2.7,2.5l-0.1,0.7c-1.8,0.4-8.6,2.4-16.2,9.3c-6.6,6.1-8.7,13.7-9.2,15.7c-1.9,0.4-8.5,2.1-9.8,8.5
				c-1.4,6.8-8.1,65.1-8.7,71c-3.8,2.2-6.5,6-7.2,10.4l-31.2,192.7c0,0.2,0,0.7,0.2,0.8c0.1,0.2,0.3,0.5,0.5,0.5c0,0,0,0,0,0
				l46.4-1.7v2.9c0,0.4,0.5,0.7,0.8,0.8l11.8,1.1c0,0,0.1-0.1,0.2-0.1h61.7c0.1,0,0.2,0,0.2-0.1c0.1,0,0.1,0.1,0.2,0.1h61.7
				c0,0,0,0.1,0.1,0.1l12.2-1.1c0.4,0,1.1-0.3,1.1-0.7v-2.9l45.9,1.7c0,0,0,0,0,0c0.2,0,0.4-0.3,0.5-0.5c0.1-0.2,0.2-0.5,0.2-0.7
				l-31.2-192.7C510.8,245.7,508.1,241.8,504.3,239.6z M510.1,250.3l1,6.4l-1.5-1.8c-1.4-1.7-3-3.2-4.7-4.4
				c-2.3-1.7-5.8-4.1-9.5-5.7c-3.3-1.5-6.9-3.1-9.4-3.9c-2.9-1.1-6-1.8-9.2-1.8h-3.1l-0.9-9.1l5.7,0.4c2.7,0.1,5.3,0.9,7.7,2.1
				l17,8.4C506.9,242.7,509.5,246.3,510.1,250.3z M491,425h-10.7l-16.6-208.9l3.9,1c1.6,0.4,2.8,1.8,3,3.5L491,425z M475.9,258
				c3.4,0.8,16.4,3.8,25.1,10.3c4.4,3.3,5.1,6.8,6.1,7.3v3.2l-11.9-6.1c0,0-0.2,0-0.2,0c-0.1,0-0.2,0.1-0.3,0.1c0,0-0.1,0.2-0.2,0.2
				h-6.4l-11.8-8.6L475.9,258z M481.5,429.1l0.4,13.9h-6.1l-3-5c-0.1-0.2-0.3-1-0.6-1h-3.8l-0.4-10.5c0.2-0.2,0.3-0.3,0.4-0.4
				c1-0.6,6.3,0,11,0.5L481.5,429.1z M486,173.4v-11.7c2,0.5,7.2,2.2,8.2,7.2c0.7,3.3,2.6,18.9,4.5,34.6c-0.9-1-1.8-2-2.8-2.9
				c-0.1-10.1-4.9-18.6-13.5-24c0,0,0,0-0.1,0l0.7,0C484.7,176.5,486,175.1,486,173.4z M463.7,169c1.1,0,2.2,0.4,3.3,0.9
				c0.1,0,6.9,3.2,14.7,8.1c7.8,4.9,12.2,12.4,12.7,21.4c-11.3-10-27.5-16.2-30.5-17.2l-1-13.1H463.7z M462.9,168l-1.1-14.9
				c3.6,0.5,10,4,14.3,7.3c4.5,3.5,8.4,9.5,8.4,13c0,0.9-0.7,1.7-1.5,1.8l-2.2,0.1c-0.1,0-0.3,0.1-0.4,0.2c-7-4.2-12.7-6.6-12.7-6.6
				c-1.2-0.6-2.5-0.8-3.9-0.8H462.9z M475.4,145.6c6.9,6.4,8.6,14.7,8.6,15.3v7.5c0-3.3-4.2-6.8-7.3-9.3c-4.6-3.6-11.3-7.3-15.2-7.7
				l-1.2-14.7C462.5,137.3,468.7,139.4,475.4,145.6z M357,160.9c0-0.6,1.9-8.9,8.9-15.3c6.7-6.2,12.9-8.3,15.2-8.9l-1.1,14.7
				c-3.9,0.4-10.7,4.1-15.3,7.7c-3.2,2.5-5.6,6-7.6,9.3V160.9z M365.5,160.3c4.3-3.3,10.7-6.8,14.3-7.3l-1.1,14.9h-0.9
				c-1.3,0-2.7,0.2-3.8,0.8c-0.1,0-5.8,2.5-12.8,6.7c-0.1-0.1-0.2-0.2-0.4-0.2l-2.2-0.1c-0.9-0.1-1.6-0.9-1.6-1.8
				C357.1,169.9,360.9,163.9,365.5,160.3z M378.6,169l-1,13.1c-3,1.1-19.2,7.2-30.5,17.2c0.5-8.9,5-16.4,12.7-21.3
				c7.8-4.9,14.7-8.1,14.8-8.1c1-0.5,2.1-0.9,3.2-0.9H378.6z M347.5,169c1-5,6.5-6.7,8.5-7.2v11.7c0,1.7,1,3.1,2.7,3.3l0.5,0
				c0,0-0.1,0-0.1,0c-8.6,5.4-13.4,13.9-13.5,24c-1,0.9-1.8,1.9-2.7,2.9C344.9,187.8,346.9,172.2,347.5,169z M342.6,206.2
				c11-14,35.6-22.6,35.9-22.7c0.3-0.1,0.5-0.4,0.5-0.7l3.6-47l0.2-1.1c0.1-0.7,0.7-1.2,1.5-1.3l0.6,0c0.2,0,0.5-0.2,0.6-0.4
				l1.2-2.2c0.4-0.8,1.2-1.4,2.1-1.5c2-0.3,6.9-0.6,9.2,1.6c0.1,0.1,0.3,0.2,0.5,0.2c0.1,0,14.7-1.5,22.2-1.5c0.1,0,0.2,0,0.2-0.1
				c0.1,0,0.1,0.1,0.2,0.1c7.5,0,22.1,1.5,22.2,1.5c0.2,0,0.4-0.1,0.5-0.2c2.2-2.3,7.2-1.9,9.2-1.6c0.9,0.1,1.7,0.7,2.1,1.5l1.2,2.2
				c0.1,0.2,0.3,0.4,0.6,0.4l0.6,0c0.7,0,1.3,0.6,1.5,1.3l0.2,1.1l3.6,47c0,0.3,0.2,0.6,0.5,0.7c0.2,0.1,24.9,8.7,35.9,22.7
				c1.7,14.4,3.3,28.3,3.8,32.6l-15.9-7.9c-2.6-1.3-5.3-2-8.2-2.1l-5.9-0.3l-0.8-8.2c-0.2-2.3-1.9-4.2-4-4.7l-4.8-1.2
				c-0.2-0.1-0.4,0-0.6,0.2c-0.2,0.2-0.3,0.4-0.2,0.6l16.7,209.6c-6.9-0.8-9.6-0.5-10.8-0.1l-6.1-169v-10c0-0.4-0.4-0.6-0.8-0.6
				c-0.2,0-20.8-1.3-40.2-2.3h0c-0.1,0-0.2-0.1-0.3-0.1c-0.1,0-0.1-0.1-0.2-0.1c-19.4,0.2-39.8,2.3-40,2.4c-0.4,0-0.6,0.3-0.6,0.7
				v10l-6.3,169c-1.2-0.5-4.1-0.8-11,0.1l16.7-209.6c0-0.2-0.1-0.5-0.2-0.6c-0.2-0.2-0.4-0.2-0.6-0.2l-4.8,1.2
				c-2.2,0.6-3.8,2.5-4,4.7l-0.8,8.2l-5.9,0.3c-2.9,0.2-5.6,0.9-8.2,2.1l-15.9,7.9C339.2,234.6,340.8,220.6,342.6,206.2z M422,428
				v-48h17v48H422z M439,430v7h-17v-7H439z M421,378c-0.1,0-0.2,0-0.2,0.1c-0.1,0-0.1-0.1-0.2-0.1h-18.2c-0.4,0-0.3,0.7-0.3,1.2
				v48.2l-6.3-1.3l1.7-114.8c2.6-0.4,13.2-1.9,23.2-1.9c0.1,0,0.1,0,0.2-0.1c0.1,0,0.1,0.1,0.2,0.1c10,0,20.7,1.5,23.3,1.9
				l1.9,114.7l-6.1,1.3v-48.2c0-0.4-0.4-1.2-0.8-1.2H421z M420,430v7h-17v-7H420z M403,428v-48h17v48H403z M402,428.9v8.1h-6.7
				l0.3-9.7L402,428.9z M440,428.9l6.1-1.6l0.1,9.7H440V428.9z M445.6,310.6c0-0.4-0.3-0.7-0.6-0.7c-0.1,0-12.6-2-24.1-2
				c-0.1,0-0.2,0-0.2,0.1c-0.1,0-0.1-0.1-0.2-0.1c-11.5,0-23.9,2-24.1,2c-0.3,0.1-0.6,0.4-0.6,0.7l-1.8,115.2l-9.4-0.7
				c-0.1,0-0.1,0-0.1,0c-3.7,0.6-7.9,0.9-9.5,0.6l6.2-169.2c3.8-0.4,24.6-2.6,39.3-2.9c0.1,0,0.1,0,0.2-0.1c0.1,0,0.1,0.1,0.2,0.1
				c14.7,0.3,35.5,2.5,39.3,2.9l6.2,169.2c-1.6,0.3-5.8,0-9.5-0.6c0,0-0.1,0-0.1,0l-9.4,0.7L445.6,310.6z M394.1,427.1l-0.2,9.9
				h-19.3l0.4-10c1.5,0.3,4.4,0.2,9.7-0.6L394.1,427.1z M382,255v-8.5c3-0.4,21.5-2.1,38.9-2.3c0.1,0,0,0,0-0.1c0.1,0-0.1,0.1,0,0.1
				c17.5,0.2,35.1,2,39.1,2.3v8.5c-4-0.4-24.6-2.6-39.1-2.9c-0.1,0-0.1,0-0.2,0c-0.1,0-0.1-0.1-0.2-0.1c0,0,0,0,0,0
				C406,252,385,254.6,382,255z M456.9,426.7c5.3,0.8,8.2,0.6,9.7,0.3l0.4,10h-19.3l-0.2-9.9L456.9,426.7z M371,220.6
				c0.2-1.6,1.4-3,3-3.4l3.9-1L361.2,425h-10.7L371,220.6z M365.2,264.4l-11.8,8.6h-6.4c0,0,0-0.2-0.1-0.2c-0.1,0-0.1-0.1-0.2,0
				c0,0,0.3,0,0.3,0l-11.1,6.1v-3.2c0-0.5,0.9-4,5.3-7.3c8.6-6.4,21.1-9.4,24.5-10.2L365.2,264.4z M362.2,426.4
				c4.7-0.6,10-0.8,11-0.2c0,0.2,0.1,0.1,0.4,0.3l-0.4,10.5h-3.8c-0.2,0-0.4,0.8-0.6,1l-3,5h-6.1l0.4-13.9L362.2,426.4z
				 M331.4,250.3c0.7-4,3.2-7.6,6.8-9.5l17-8.4c2.4-1.2,5-1.9,7.7-2l5.7-0.5l-0.9,9.1h-3.1c-3.1,0-6.2,0.7-9.2,1.8
				c-2.5,0.9-6.1,2.4-9.4,3.9c-3.7,1.7-7.2,4.1-9.5,5.8c-1.7,1.3-3.3,2.8-4.7,4.5l-1.5,1.8L331.4,250.3z M300.4,442l29.5-182.6
				l3-3.6c1.3-1.6,2.8-3,4.4-4.2c2.2-1.7,5.7-4,9.2-5.6c3.3-1.5,6.9-2.8,9.3-3.7c2.8-1,5.7-1.5,8.7-1.5h2.9l-1.6,15.4
				c-2.3,0.5-16.2,3.5-25.8,10.6c-5.3,3.9-6.2,8.1-6.2,8.3c0,0.1,0,0.1,0,0.2v4.5l-16,161.5c0,0,0,0.1,0,0.1L300.4,442z
				 M319.4,441.5l15.9-161l11-5.9l-14,166.5L319.4,441.5z M346.5,426.9c-0.2,0.1-0.5,0.4-0.5,0.6v13.3l-12.5,0.8L347.7,275h5.9
				c0.1,0,0.3-0.5,0.4-0.6l11-8.1l-16.1,159L346.5,426.9z M358.7,428.3l-0.4,14.1c-0.1,0.1-0.1,0.3-0.1,0.4c0,0.1,0,0.3,0.1,0.4
				l0,2.4l-10.3-1v-16.6l1.9-1.9h10.2l-1.3,1.6C358.8,427.7,358.7,428.1,358.7,428.3z M421,445c-0.1,0-0.2,0-0.2,0.1
				c-0.1,0-0.1-0.1-0.2-0.1h-61l0.1-1h6.5c0.2,0,0.4-0.3,0.6-0.5l3-4.5h24.9h0H421v0.2v-0.1c0,0-0.1-0.1,0-0.1c0.1,0-0.1,0,0,0h25.9
				h0h24.9l3,4.5c0.1,0.2,0.3,0.5,0.6,0.5h6.5l0.1,1H421z M494,444.5l-10.5,1l-0.1-2.4c0.1-0.1,0.1-0.2,0.1-0.4
				c0-0.2-0.1-0.3-0.1-0.4l-0.4-14.1c0-0.2-0.1-0.6-0.2-0.7l-1.3-1.6h10.2l2.4,1.9V444.5z M496,440.8v-13.3c0-0.3-0.6-0.5-0.8-0.6
				l-2.6-1.6l-16.1-159.1l10.9,8.3c0.1,0.1,0.2,0.6,0.3,0.6h5.9l14.4,166.6L496,440.8z M509.2,441.2l-14-166.5l11,5.9l15.9,161
				L509.2,441.2z M541.1,442l-17.6-0.5c0,0,0.2-0.1,0.2-0.1L508,280v-4.5c0-0.1-0.2-0.1-0.2-0.2c0-0.2-1.1-4.4-6.4-8.3
				c-9.6-7.2-23.6-10.1-25.8-10.6L474,241h2.9c3,0,5.9,0.4,8.7,1.5c2.4,0.9,6,2.2,9.3,3.7c3.6,1.6,7,3.9,9.3,5.6
				c1.6,1.2,3.1,2.6,4.4,4.2l3,3.6L541.1,442z"/>
		</g>
		<g>
			<path class="st0" d="M451.5,148.7c0.1,0,0,0,0.1,0c0.3,0,0.5-0.2,0.6-0.5c0.1-0.4-0.1-0.8-0.5-0.9c0,0-0.8-0.3-2.3-0.6
				c-0.1-0.2-0.3-0.3-0.5-0.3c-0.1,0-0.2,0-0.3,0.1c-4.8-1.1-14.7-3.1-27.7-3.1c-0.1,0-0.2,0-0.2,0.1c-0.1,0-0.1-0.1-0.2-0.1
				c-12.9,0-22.9,1.9-27.7,3.1c-0.1,0-0.2-0.1-0.3-0.1c-0.2,0-0.4,0.1-0.5,0.3c-1.5,0.4-2.2,0.6-2.3,0.6c-0.4,0.1-0.6,0.5-0.5,0.9
				c0.1,0.3,0.4,0.5,0.7,0.5c0.1,0,0.2,0,0.3,0c0,0,0.8-0.2,1.8-0.5v15.6c-2,0.2-3.5,0.3-3.5,0.3c-0.4,0-0.7,0.4-0.7,0.8
				c0,0.4,0.3,0.7,0.7,0.7c0,0,0,0,0.1,0c0.2,0,20.4-2.1,32-2.1c0.1,0,0.2,0,0.2-0.1c0.1,0,0.1,0.1,0.2,0.1c11.6,0,31.8,2.1,32,2.1
				c0,0,0,0,0.1,0c0.4,0,0.7-0.3,0.7-0.7c0-0.4-0.1-0.8-0.4-0.8c-0.1,0-1.3-0.1-3.3-0.3v-15.6C451,148.5,451.5,148.7,451.5,148.7z
				 M448,163.6c-6-0.6-19-1.7-27.1-1.7c-0.1,0-0.1,0-0.2,0.1c-0.1,0,0.2-0.1,0.2-0.1c-8.2,0-20.9,1-26.9,1.7v-15.8
				c5-1.1,14.2-3,26.9-3c0.1,0,0,0,0.1-0.1c0.1,0-0.1,0.1,0,0.1c12.7,0,22,1.9,27,3V163.6z"/>
		</g>
		<g>
			<rect x="422" y="380" class="st1" width="17" height="48"/>
		</g>
		<g>
			<rect x="422" y="430" class="st1" width="17" height="7"/>
		</g>
		<g>
			<path class="st1" d="M420.8,144.8c-0.1,0,0.2,0.1,0.1,0.1c-12.7,0-21.9,1.9-26.9,3v15.8c6-0.6,18.7-1.7,26.9-1.7
				c0.1,0,0,0,0.1,0.1c0.1,0-0.1-0.1,0-0.1c8.2,0,21,1,27,1.7v-15.8c-5-1.1-14.4-3-27.1-3C420.8,144.8,420.8,144.8,420.8,144.8z"/>
		</g>
		<g>
			<path class="st1" d="M399,197v7h0.6c1.6,0,2.7-1.9,2.7-3.5c0-1.7-1.1-3.5-2.7-3.5H399z"/>
		</g>
		<g>
			<path class="st1" d="M443.7,200.4c0,1.6,1.1,2.9,2.7,3c1.6,0,2.7-1.3,2.7-2.9c0-1.6-1.1-3-2.7-3
				C444.8,197.5,443.7,198.8,443.7,200.4z"/>
		</g>
		<g>
			<path class="st1" d="M362.8,228.9l5.9-0.3l0.8-8.2c0.2-2.3,1.9-4.2,4-4.7l4.8-1.2c0.2-0.1,0.4,0,0.6,0.2c0.2,0.2,0.3,0.4,0.2,0.6
				l-16.7,209.6c6.9-0.8,9.9-0.5,11.1-0.1l6.3-169v-10c0-0.4,0.2-0.7,0.6-0.7c0.2,0,20.6-2.2,40-2.4c0.1,0,0.1,0.2,0.2,0.2
				c0.1,0,0.1,0.1,0.2,0.1h0c19.4,1,40,2.2,40.2,2.3c0.4,0,0.8,0.2,0.8,0.6v10l6.1,169c1.2-0.5,4-0.8,10.9,0.1l-16.7-209.6
				c0-0.2,0-0.5,0.2-0.6c0.2-0.2,0.4-0.2,0.6-0.2l4.8,1.2c2.2,0.6,3.8,2.5,4,4.7l0.8,8.2l5.9,0.3c2.9,0.2,5.6,0.9,8.2,2.1l15.9,7.9
				c-0.5-4.3-2.1-18.2-3.8-32.6c-11-14-35.6-22.6-35.9-22.7c-0.3-0.1-0.5-0.4-0.5-0.7l-3.6-47l-0.2-1.1c-0.1-0.7-0.7-1.2-1.5-1.3
				l-0.6,0c-0.2,0-0.5-0.2-0.6-0.4l-1.2-2.2c-0.4-0.8-1.2-1.4-2.1-1.5c-2-0.3-6.9-0.6-9.2,1.6c-0.1,0.1-0.3,0.2-0.5,0.2
				c-0.1,0-14.7-1.5-22.2-1.5c-0.1,0-0.2,0-0.2-0.1c-0.1,0-0.1,0.1-0.2,0.1c-7.5,0-22.1,1.5-22.2,1.5c-0.2,0-0.4-0.1-0.5-0.2
				c-2.2-2.3-7.2-1.9-9.2-1.6c-0.9,0.1-1.7,0.7-2.1,1.5l-1.2,2.2c-0.1,0.2-0.3,0.4-0.6,0.4l-0.6,0c-0.7,0-1.3,0.6-1.5,1.3l-0.2,1.1
				l-3.6,47c0,0.3-0.2,0.6-0.5,0.7c-0.2,0.1-24.9,8.7-35.9,22.7c-1.7,14.4-3.3,28.3-3.8,32.6l15.9-7.9
				C357.2,229.7,360,229,362.8,228.9z M463,235.4c0.4,0,0.7,0.4,0.6,0.8c0,0.4-0.3,0.7-0.7,0.7c0,0,0,0-0.1,0
				c-0.2,0-22.3-2.1-41.9-2.4c-0.1,0-0.2,0-0.2-0.1c-0.1,0-0.1,0.1-0.2,0.1c-19.6,0.2-41.6,2.4-41.9,2.4c0,0,0,0-0.1,0
				c-0.4,0-0.7-0.3-0.7-0.7c0-0.4,0.2-0.8,0.6-0.8c0.2,0,22.3-2.2,42-2.4c0.1,0,0.1,0,0.2,0c0.1,0,0.2-0.1,0.3-0.1h0
				C440.6,233,462.8,235.4,463,235.4z M420.5,132.5c0.1,0,0.2,0,0.2,0.1c0.1,0,0.1-0.1,0.2-0.1c14.9,0,27.9,2.5,28.1,2.5
				c0.4,0.1,0.6,0.5,0.6,0.9c-0.1,0.4-0.4,0.6-0.7,0.6c0,0-0.1,0-0.1,0c-0.1,0-13.1-2.5-27.8-2.5c-0.1,0-0.2,0-0.2-0.1
				c-0.1,0-0.1,0.1-0.2,0.1c-14.7,0-27.7,2.4-27.8,2.5c0,0-0.1,0-0.1,0c-0.3,0-0.6-0.3-0.7-0.6c-0.1-0.4,0.2-0.8,0.6-0.9
				C392.6,135,405.7,132.5,420.5,132.5z M453.3,164.1c0.4,0,0.6,0.4,0.5,0.8c0,0.4-0.4,0.7-0.7,0.7c0,0-0.1,0-0.1,0
				c-0.2,0-20.4-2.1-32-2.1c-0.1,0-0.2,0-0.2-0.1c-0.1,0-0.2,0.1-0.2,0.1c-11.6,0-31.8,2.1-32,2.1c0,0,0,0-0.1,0
				c-0.4,0-0.7-0.3-0.7-0.7c0-0.4,0.3-0.8,0.7-0.8c0.1,0,1.5-0.1,3.5-0.3v-15.6c-1,0.3-1.7,0.5-1.8,0.5c-0.1,0-0.2,0-0.2,0
				c-0.3,0-0.6-0.2-0.7-0.5c-0.1-0.4,0.1-0.8,0.5-0.9c0,0,0.8-0.3,2.3-0.6c0.1-0.2,0.3-0.3,0.5-0.3c0.1,0,0.2,0,0.3,0.1
				c4.8-1.1,14.7-3.1,27.7-3.1c0.1,0,0.2,0,0.2,0.1c0.1,0,0.1-0.1,0.2-0.1c12.9,0,22.9,1.9,27.7,3.1c0.1,0,0.2-0.1,0.3-0.1
				c0.2,0,0.4,0.1,0.5,0.3c1.5,0.4,2.2,0.6,2.3,0.6c0.4,0.1,0.6,0.5,0.5,0.9c-0.1,0.3-0.4,0.5-0.7,0.5c-0.1,0,0,0,0,0
				c0,0-0.5-0.2-1.5-0.5v15.6C452,164,453.2,164.1,453.3,164.1z M386.2,136.6c0.1-1.1,0.5-1.9,1.2-2.8c1.1-1.3,2.6-1.8,4.3-1.8h1.9
				c0.4,0,0.7,0.1,0.7,0.5s-0.3,0.5-0.7,0.5h-1.9c-1.3,0-2.4,0.5-3.2,1.5c-0.5,0.6-0.8,1.4-0.9,2.2l-2.8,44.9
				c4.4-0.5,24.8-2.9,35.8-2.9c0.1,0,0.2,0,0.2,0c0.1,0,0.1-0.1,0.2-0.1c11,0,31.4,2.4,35.8,2.9l-2.8-44.9c-0.1-0.8-0.3-1.5-0.9-2.2
				c-0.8-1-2-1.5-3.2-1.5h-1.9c-0.4,0-0.7-0.1-0.7-0.5s0.3-0.5,0.7-0.5h1.9c1.7,0,3.2,0.5,4.3,1.8c0.7,0.9,1.1,1.8,1.2,2.9l2.9,45.7
				c0,0.2-0.1,0.4-0.2,0.6c-0.1,0.1-0.3,0.2-0.5,0.2c0,0-0.1,0-0.1,0c-0.2,0-24.2-3-36.4-3c-0.1,0-0.2,0-0.2-0.1c-0.1,0-0.1,0-0.2,0
				c-12.2,0-36.2,3-36.4,3c0,0-0.1,0-0.1,0c-0.2,0-0.4-0.1-0.5-0.2c-0.2-0.2-0.2-0.4-0.2-0.6L386.2,136.6z M384,215.1v7.9
				c6-0.6,21.7-1.9,36.8-2.1c0.1,0,0.1,0,0.2,0.1c0.1,0,0,0,0.1,0c0,0,0,0,0,0c15,0,31,1.5,37,2.1v-7.9c0-0.4,0.1-0.8,0.5-0.8
				s0.5,0.3,0.5,0.8v8.1c1,0.1,1.8,0.2,1.8,0.2c0.4,0,0.8,0.4,0.7,0.8c0,0.4-0.3,0.7-0.6,0.7c0,0,0,0,0,0c0,0-0.6-0.1-1.7-0.2
				c-0.1,0.1-0.3,0.2-0.4,0.2c-0.2,0-0.4-0.1-0.5-0.3c-6.2-0.6-22-1.9-37.2-2.1c-0.1,0-0.2,0-0.2-0.1c-0.1,0-0.1,0.1-0.2,0.1
				c-15.2,0.2-31,1.5-37.2,2.1c-0.1,0.2-0.3,0.3-0.5,0.3c-0.2,0-0.3-0.1-0.4-0.2c-1.1,0.1-1.7,0.2-1.7,0.2c0,0,0,0-0.1,0
				c-0.4,0-0.7-0.3-0.7-0.7c0-0.4,0.7-0.8,1.1-0.8c0,0,1.1-0.1,2.1-0.2v-8.1c0-0.4,0.1-0.8,0.5-0.8S384,214.7,384,215.1z"/>
		</g>
		<g>
			<path class="st1" d="M454.6,200.4c0,1.6,1.2,2.9,2.7,3c1.6,0,2.7-1.3,2.7-2.9c0-1.6-1.1-3-2.7-3
				C455.6,197.5,454.6,198.8,454.6,200.4z"/>
		</g>
		<g>
			<path class="st1" d="M386.9,200.4c0,1.6,1.1,2.9,2.7,3c1.6,0,2.7-1.3,2.7-2.9c0-1.6-1.1-3-2.7-3
				C388,197.5,386.9,198.8,386.9,200.4z"/>
		</g>
		<g>
			<path class="st1" d="M420.8,340.9c-0.1,0-0.1,0.1-0.2,0.1h-7.6c-0.3,4-1.9,7.7-5.9,8.1v9c4,0.4,5.6,3.8,5.9,7.8h7.6
				c0.1,0,0.2,0,0.2,0c0.1,0,0.1,0,0.2,0h7.6c0.3-4,2.4-7.4,6.4-7.8v-9c-4-0.4-6.1-4.1-6.4-8.1H421C420.9,341,420.8,341,420.8,340.9
				z"/>
		</g>
		<g>
			<rect x="403" y="430" class="st1" width="17" height="7"/>
		</g>
		<g>
			<rect x="403" y="380" class="st1" width="17" height="48"/>
		</g>
		<g>
			<path class="st1" d="M345.6,200.7c0.1-10.1,4.9-18.6,13.5-24c0,0,0,0,0.1,0l-0.5,0c-1.7-0.2-2.7-1.6-2.7-3.3v-11.7
				c-2,0.5-7.4,2.2-8.5,7.2c-0.7,3.3-2.7,18.9-4.6,34.6C343.8,202.6,344.7,201.7,345.6,200.7z"/>
		</g>
		<g>
			<path class="st1" d="M420.8,337.9c-0.1,0-0.1,0.1-0.2,0.1H403v31h17.5c0.1,0,0.2,0,0.2,0.1c0.1,0,0.1-0.1,0.2-0.1h18v-31h-18
				C420.9,338,420.8,338,420.8,337.9z M430,340.6c0,3.4,2.6,7.1,6,7.1c0.4,0,1,0.3,1,0.7v10.5c0,0.4-0.6,0.8-1,0.8
				c-3.4,0-5.9,4-5.9,7.4c0,0.4-0.4,1-0.8,1H421c-0.1,0-0.2,0-0.2-0.1c-0.1,0-0.1,0.1-0.2,0.1h-8.3c-0.4,0-0.7-0.6-0.7-1
				c0-3.4-2.4-7.3-5.8-7.3c-0.4,0-0.7-0.5-0.7-0.9v-10.5c0-0.4,0.3-0.8,0.7-0.8c3.4,0,5.8-3.7,5.8-7c0-0.4,0.3-0.6,0.7-0.6h8.3
				c0.1,0,0.2,0,0.2,0c0.1,0,0.1,0,0.2,0h8.3C429.7,340,430,340.2,430,340.6z"/>
		</g>
		<g>
			<path class="st1" d="M440,379.2v48.2l6.1-1.3l-1.8-114.7c-2.6-0.4-13.3-1.9-23.3-1.9c-0.1,0-0.2,0-0.2-0.1
				c-0.1,0-0.2,0.1-0.2,0.1c-10,0-20.7,1.5-23.3,1.9l-1.6,114.8l6.3,1.3v-48.2c0-0.4,0-1.2,0.3-1.2h18.2c0.1,0,0.2,0,0.2,0.1
				c0.1,0,0.1-0.1,0.2-0.1h18.2C439.6,378,440,378.7,440,379.2z M420.8,370.9c-0.1,0-0.1,0.1-0.2,0.1h-18.2c-0.4,0-0.3-0.6-0.3-1
				v-32.6c0-0.4,0-0.3,0.3-0.3h18.2c0.1,0,0.2,0,0.2,0.1c0.1,0,0.1-0.1,0.2-0.1h18.2c0.4,0,0.8-0.1,0.8,0.3V370c0,0.4-0.4,1-0.8,1
				H421C420.9,371,420.8,371,420.8,370.9z"/>
		</g>
		<g>
			<path class="st1" d="M494.4,273c0,0,0-0.2,0.1-0.2c0.1,0,0.1-0.1,0.2,0c0,0,0.4,0,0.4,0l11.9,6.1v-3.2c-1-0.5-1.6-4-6.1-7.3
				c-8.6-6.4-21.4-9.5-24.9-10.3l0.4,6.4l11.7,8.6H494.4z"/>
		</g>
		<g>
			<path class="st1" d="M468.4,426.2c0,0.2-0.1,0.1-0.4,0.3l0.4,10.5h3.8c0.2,0,0.4,0.8,0.6,1l3,5h6.1l-0.4-13.9l-2.1-2.5
				C474.7,426.1,469.3,425.6,468.4,426.2z"/>
		</g>
		<g>
			<path class="st1" d="M482.4,176.7C482.4,176.7,482.4,176.7,482.4,176.7c8.7,5.4,13.4,13.9,13.5,24c1,0.9,1.9,1.9,2.8,2.9
				c-1.9-15.8-3.8-31.4-4.4-34.6c-1-5-6.2-6.7-8.2-7.2v11.7c0,1.7-1.3,3.1-2.9,3.3L482.4,176.7z"/>
		</g>
		<g>
			<path class="st1" d="M494.4,199.4c-0.5-8.9-5-16.5-12.7-21.3c-7.8-4.9-14.7-8.1-14.7-8.1c-1-0.6-2.2-0.9-3.3-0.9H463l1,13.1
				C466.9,183.2,483.1,189.4,494.4,199.4z"/>
		</g>
		<g>
			<path class="st1" d="M374.6,169.9c-0.1,0.1-7,3.2-14.8,8.1c-7.8,4.9-12.2,12.4-12.7,21.4c11.3-10,27.5-16.2,30.5-17.2l1-13.1
				h-0.7C376.7,169,375.6,169.4,374.6,169.9z"/>
		</g>
		<g>
			<path class="st1" d="M478.6,230.4l-5.7-0.5l0.9,9.1h3.1c3.1,0,6.2,0.7,9.2,1.8c2.5,0.9,6.1,2.4,9.4,3.9c3.7,1.7,7.2,4.1,9.5,5.8
				c1.7,1.3,3.3,2.8,4.7,4.5l1.5,1.8l-1-6.4c-0.7-4-3.2-7.6-6.8-9.5l-17-8.4C483.9,231.2,481.3,230.5,478.6,230.4z"/>
		</g>
		<g>
			<path class="st1" d="M467.6,217.1l-3.9-0.9L480.3,425H491l-20.5-204.4C470.4,218.9,469.2,217.5,467.6,217.1z"/>
		</g>
		<g>
			<polygon class="st1" points="395.3,437 402,437 402,428.9 395.6,427.3 			"/>
		</g>
		<g>
			<path class="st1" d="M358.7,175.2l2.2,0.1c0.1,0,0.3,0.1,0.4,0.2c7-4.2,12.7-6.6,12.8-6.7c1.1-0.6,2.5-0.8,3.8-0.8h0.9l1.1-14.9
				c-3.6,0.5-10,4-14.3,7.3c-4.5,3.5-8.4,9.5-8.4,13C357.1,174.3,357.8,175.1,358.7,175.2z"/>
		</g>
		<g>
			<path class="st1" d="M476.7,159.1c3.2,2.5,7.3,6,7.3,9.3v-7.5c0-0.7-1.7-9-8.6-15.3c-6.7-6.2-12.8-8.3-15-8.9l1.1,14.7
				C465.3,151.8,472,155.5,476.7,159.1z"/>
		</g>
		<g>
			<path class="st1" d="M467.6,168.8c0,0,5.8,2.5,12.7,6.7c0.1-0.1,0.2-0.2,0.4-0.2l2.2-0.1c0.9-0.1,1.5-0.9,1.5-1.8
				c0-3.5-3.8-9.5-8.4-13.1c-4.3-3.3-10.7-6.8-14.3-7.3l1.1,14.9h0.9C465.1,168,466.4,168.2,467.6,168.8z"/>
		</g>
		<g>
			<path class="st1" d="M364.6,159.1c4.6-3.6,11.4-7.3,15.3-7.7l1.1-14.7c-2.2,0.6-8.4,2.7-15.2,8.9c-7,6.4-8.9,14.7-8.9,15.3v7.5
				C359,165.1,361.4,161.6,364.6,159.1z"/>
		</g>
		<g>
			<polygon class="st1" points="446.1,427.3 440,428.9 440,437 446.2,437 			"/>
		</g>
		<g>
			<path class="st1" d="M475.4,444c-0.2,0-0.4-0.3-0.6-0.5l-3-4.5H447h0H421c-0.1,0,0.1,0,0-0.1c-0.1,0,0,0.1,0,0.1v0.1V439h-26.4h0
				h-24.9l-3,4.5c-0.1,0.2-0.3,0.5-0.6,0.5h-6.5l-0.1,1h61c0.1,0,0.2,0,0.2,0.1c0.1,0,0.1-0.1,0.2-0.1h61l-0.1-1H475.4z"/>
		</g>
		<g>
			<path class="st1" d="M349.9,426l-1.9,1.9v16.6l10.3,1l0-2.4c-0.1-0.1-0.1-0.2-0.1-0.4c0-0.2,0-0.3,0.1-0.4l0.4-14.1
				c0-0.2,0.1-0.6,0.2-0.7l1.2-1.6H349.9z"/>
		</g>
		<g>
			<path class="st1" d="M365,266.1l-11,8.3c-0.1,0.1-0.3,0.6-0.4,0.6h-5.9l-14.2,166.6l12.5-0.8v-13.3c0-0.3,0.3-0.5,0.5-0.6
				l2.5-1.6L365,266.1z"/>
		</g>
		<g>
			<path class="st1" d="M359.7,443h6.1l3-5c0.1-0.2,0.3-1,0.6-1h3.8l0.4-10.5c-0.2-0.2-0.3-0.3-0.4-0.4c-1-0.6-6.3-0.3-11,0.3
				l-2.1,2.7L359.7,443z"/>
		</g>
		<g>
			<path class="st1" d="M336.6,250.5c2.3-1.7,5.8-4.1,9.5-5.7c3.3-1.5,6.9-3.1,9.4-3.9c2.9-1.1,6-1.8,9.2-1.8h3.1l0.9-9.1l-5.7,0.4
				c-2.7,0.1-5.3,0.9-7.7,2.1l-17,8.4c-3.6,1.9-6.1,5.5-6.8,9.5l-1,6.4l1.5-1.8C333.3,253.2,334.8,251.7,336.6,250.5z"/>
		</g>
		<g>
			<path class="st1" d="M334,280v-4.5c0-0.1,0-0.1,0-0.2c0-0.2,1-4.4,6.2-8.3c9.6-7.2,23.5-10.1,25.8-10.6l1.5-15.4h-2.9
				c-3,0-5.9,0.4-8.7,1.5c-2.4,0.9-6,2.2-9.3,3.7c-3.6,1.6-7,3.9-9.2,5.6c-1.6,1.2-3.1,2.6-4.4,4.2l-3,3.6L300.4,442l17.6-0.5
				c0,0,0-0.1,0-0.1L334,280z"/>
		</g>
		<g>
			<path class="st1" d="M504.2,251.7c-2.2-1.7-5.7-4-9.3-5.6c-3.3-1.5-6.9-2.8-9.3-3.7c-2.8-1-5.7-1.5-8.7-1.5H474l1.6,15.4
				c2.3,0.5,16.2,3.5,25.8,10.6c5.3,3.9,6.4,8.1,6.5,8.3c0,0.1,0.2,0.1,0.2,0.2v4.5l15.8,161.5c0,0-0.1,0.1-0.1,0.1l17.5,0.5
				l-29.5-182.6l-3-3.6C507.3,254.3,505.8,252.9,504.2,251.7z"/>
		</g>
		<g>
			<path class="st1" d="M487.9,275c-0.1,0-0.3-0.5-0.4-0.6l-11-8.1l16,159l2.8,1.6c0.2,0.1,0.8,0.3,0.8,0.6v13.3l12.2,0.8L493.8,275
				H487.9z"/>
		</g>
		<g>
			<polygon class="st1" points="495.3,274.6 509.2,441.2 522.2,441.5 506.3,280.5 			"/>
		</g>
		<g>
			<path class="st1" d="M481.4,426l1.3,1.6c0.1,0.1,0.2,0.4,0.2,0.6l0.4,14.2c0.1,0.1,0.1,0.3,0.1,0.4c0,0.1,0,0.3-0.1,0.4l0.2,2.4
				l10.5-1v-16.6l-2.4-1.9H481.4z"/>
		</g>
		<g>
			<polygon class="st1" points="335.3,280.5 319.4,441.5 332.3,441.2 346.3,274.6 			"/>
		</g>
		<g>
			<path class="st1" d="M467,437l-0.4-10c-1.5,0.3-4.4,0.4-9.7-0.5l-9.4,0.5l0.2,10H467z"/>
		</g>
		<g>
			<path class="st1" d="M361.2,425l16.6-208.9l-3.9,1c-1.6,0.4-2.8,1.8-3,3.5L350.5,425H361.2z"/>
		</g>
		<g>
			<path class="st1" d="M336,275.6v3.2l11.1-6.1c0,0-0.2,0-0.1,0c0.1,0,0.1,0.1,0.1,0.1c0,0,0,0.2,0,0.2h6.4l11.8-8.6l0.4-6.3
				c-3.4,0.8-15.7,3.8-24.3,10.2C336.9,271.6,336,275,336,275.6z"/>
		</g>
		<g>
			<path class="st1" d="M420.8,252.1C420.9,252.1,420.8,252.1,420.8,252.1c14.6,0.3,35.2,2.5,39.2,2.9v-8.5
				c-4-0.4-21.7-2.1-39.1-2.3c-0.1,0-0.1,0-0.2-0.1c-0.1,0,0.3,0.1,0.2,0.1c-17.5,0.2-35.9,2-38.9,2.3v8.5c3-0.4,24-3,38.5-3
				c0,0,0,0,0,0C420.6,252,420.7,252.1,420.8,252.1z"/>
		</g>
		<g>
			<path class="st1" d="M456.9,425.1c0,0,0.1,0,0.1,0c3.7,0.6,7.9,0.9,9.5,0.6l-6.2-169.2c-3.8-0.4-24.6-2.6-39.3-2.9
				c-0.1,0-0.1,0-0.2-0.1c-0.1,0-0.1,0.1-0.2,0.1c-14.7,0.3-35.5,2.5-39.3,2.9L375,425.8c1.6,0.3,5.8,0,9.5-0.6c0,0,0.1,0,0.1,0
				l9.4,0.7l1.8-115.2c0-0.4,0.3-0.7,0.6-0.7c0.1,0,12.6-2,24.1-2c0.1,0,0.2,0,0.2,0.1c0.1,0,0.1-0.1,0.2-0.1c11.5,0,23.9,2,24.1,2
				c0.3,0.1,0.6,0.4,0.6,0.7l1.8,115.2L456.9,425.1z M439,306.2c0,0.2-0.4,0.4-0.6,0.6c-0.1,0.1-0.5,0.2-0.6,0.2c0,0-0.2,0-0.2,0
				c-0.1,0-8-1.2-16.6-1.2c-0.1,0-0.2,0-0.3-0.1c-0.1,0-0.2,0.1-0.2,0.1c-8.5,0-16.4,1.2-16.5,1.2c0,0-0.1,0-0.1,0
				c-0.2,0-0.4-0.1-0.6-0.2c-0.2-0.1-0.4-0.4-0.4-0.6v-42.3c0-0.4,0.4-0.7,0.7-0.7c0.1,0,9.6-1.2,16.8-1.2c0.1,0,0.2,0,0.3,0.1
				c0.1,0,0.2-0.1,0.2-0.1c7.1,0,17,1.2,17.1,1.2c0.4,0,1,0.4,1,0.7V306.2z"/>
		</g>
		<g>
			<path class="st1" d="M374.9,427l-0.4,10h19.3l0.2-9.9l-9.4-0.7C379.3,427.2,376.5,427.3,374.9,427z"/>
		</g>
		<g>
			<path class="st1" d="M420.8,263.4C420.7,263.4,420.8,263.4,420.8,263.4c-6.1,0.1-13.8,0.9-15.8,1.2v40.8c2-0.3,8.7-1.1,15.7-1.1
				c0.1,0,0.1,0,0.1,0.1c0.1,0,0.1-0.1,0.2-0.1c7,0,13.9,0.8,15.9,1.1v-40.8c-2-0.3-9.9-1.1-16-1.1
				C421,263.4,420.8,263.4,420.8,263.4z"/>
		</g>
		<g id="nodeschool-banner_1_">
			<g>
				<g>
					<path class="st0" d="M375.1,204.7c0.6,0,1-0.4,1-0.9V199l4,5.1c0.3,0.3,0.6,0.6,1,0.6h0.1c0.6,0,1-0.4,1-1v-7.1
						c0-0.5-0.4-0.9-1-0.9c-0.6,0-1,0.4-1,0.9v4.6l-3.9-5c-0.3-0.3-0.6-0.6-1-0.6h-0.2c-0.6,0-1,0.4-1,1v7.1
						C374.1,204.3,374.6,204.7,375.1,204.7L375.1,204.7z"/>
				</g>
			</g>
			<g>
				<g>
					<path class="st0" d="M388.9,204.8c2.9,0,4.9-2.1,4.9-4.6l0,0c0-2.6-2-4.6-4.9-4.6c-2.9,0-4.9,2.1-4.9,4.6l0,0
						C384.1,202.8,386.1,204.8,388.9,204.8z M386.2,200.2c0-1.6,1.1-2.8,2.8-2.8c1.6,0,2.8,1.3,2.8,2.8l0,0c0,1.6-1.1,2.8-2.8,2.8
						C387.3,203,386.2,201.8,386.2,200.2L386.2,200.2z"/>
				</g>
			</g>
			<g>
				<g>
					<path class="st0" d="M396.7,204.7h2.6c2.9,0,4.9-2,4.9-4.5l0,0c0-2.5-2-4.5-4.9-4.5h-2.6c-0.6,0-1,0.4-1,1v6.9
						C395.7,204.3,396.1,204.7,396.7,204.7z M397.7,197.5h1.5c1.7,0,2.8,1.1,2.8,2.7l0,0c0,1.6-1.1,2.7-2.8,2.7h-1.5V197.5
						L397.7,197.5z"/>
				</g>
			</g>
			<g>
				<g>
					<path class="st0" d="M407,204.7h5.1c0.5,0,0.9-0.4,0.9-0.9s-0.4-0.9-0.9-0.9h-4.2V201h3.5c0.5,0,0.9-0.4,0.9-0.9
						s-0.4-0.9-0.9-0.9h-3.5v-1.8h4.1c0.5,0,0.9-0.4,0.9-0.9c0-0.5-0.4-0.9-0.9-0.9H407c-0.6,0-1,0.4-1,1v7
						C406,204.3,406.4,204.7,407,204.7L407,204.7z"/>
				</g>
			</g>
			<g>
				<g>
					<path class="st0" d="M414.6,203.7c1,0.7,2.2,1.1,3.5,1.1c2,0,3.4-1,3.4-2.8l0,0c0-1.6-1-2.2-2.9-2.7c-1.6-0.4-2-0.6-2-1.1l0,0
						c0-0.4,0.4-0.8,1.2-0.8c0.6,0,1.3,0.2,1.9,0.6c0.1,0.1,0.3,0.1,0.5,0.1c0.6,0,1-0.4,1-0.9c0-0.4-0.2-0.7-0.4-0.8
						c-0.8-0.5-1.8-0.8-2.9-0.8c-1.9,0-3.2,1.1-3.2,2.7l0,0c0,1.8,1.2,2.3,3.1,2.7c1.5,0.4,1.9,0.6,1.9,1.1l0,0
						c0,0.5-0.5,0.8-1.3,0.8c-0.9,0-1.7-0.3-2.4-0.8c-0.1-0.1-0.3-0.2-0.6-0.2c-0.6,0-1,0.4-1,0.9
						C414.2,203.3,414.4,203.6,414.6,203.7L414.6,203.7z"/>
				</g>
			</g>
			<g>
				<g>
					<path class="st0" d="M427.5,204.8c1.5,0,2.4-0.4,3.3-1.1c0.2-0.1,0.3-0.4,0.3-0.7c0-0.5-0.4-0.9-1-0.9c-0.2,0-0.4,0.1-0.6,0.2
						c-0.6,0.5-1.1,0.7-2,0.7c-1.6,0-2.6-1.3-2.6-2.8l0,0c0-1.6,1.1-2.8,2.6-2.8c0.7,0,1.3,0.2,1.9,0.6c0.1,0.1,0.3,0.2,0.6,0.2
						c0.6,0,1-0.4,1-0.9c0-0.3-0.2-0.6-0.4-0.8c-0.8-0.5-1.7-0.9-3.1-0.9c-2.9,0-4.8,2.1-4.8,4.6l0,0
						C422.8,202.8,424.8,204.8,427.5,204.8L427.5,204.8z"/>
				</g>
			</g>
			<g>
				<g>
					<path class="st0" d="M433.9,204.7c0.6,0,1-0.4,1-1V201h3.8v2.7c0,0.5,0.4,1,1,1c0.6,0,1-0.4,1-1v-7.1c0-0.5-0.4-1-1-1
						c-0.6,0-1,0.4-1,1v2.6H435v-2.6c0-0.5-0.4-1-1-1c-0.6,0-1,0.4-1,1v7.1C432.9,204.3,433.3,204.7,433.9,204.7z"/>
				</g>
			</g>
			<g>
				<g>
					<path class="st0" d="M447.3,204.8c2.9,0,4.9-2.1,4.9-4.6l0,0c0-2.6-2-4.6-4.9-4.6c-2.9,0-4.9,2.1-4.9,4.6l0,0
						C442.5,202.8,444.5,204.8,447.3,204.8z M444.6,200.2c0-1.6,1.1-2.8,2.8-2.8c1.6,0,2.8,1.3,2.8,2.8l0,0c0,1.6-1.1,2.8-2.8,2.8
						C445.7,203,444.6,201.8,444.6,200.2L444.6,200.2z"/>
				</g>
			</g>
			<g>
				<g>
					<path class="st0" d="M458.5,204.8c2.9,0,4.9-2.1,4.9-4.6l0,0c0-2.6-2-4.6-4.9-4.6c-2.9,0-4.9,2.1-4.9,4.6l0,0
						C453.7,202.8,455.7,204.8,458.5,204.8z M455.8,200.2c0-1.6,1.1-2.8,2.8-2.8c1.6,0,2.8,1.3,2.8,2.8l0,0c0,1.6-1.1,2.8-2.8,2.8
						C456.9,203,455.8,201.8,455.8,200.2L455.8,200.2z"/>
				</g>
			</g>
			<g>
				<g>
					<path class="st0" d="M466.2,204.7h4.7c0.5,0,0.9-0.4,0.9-0.9s-0.4-0.9-0.9-0.9h-3.8v-6.2c0-0.5-0.4-1-1-1c-0.6,0-1,0.4-1,1v7
						C465.2,204.3,465.7,204.7,466.2,204.7L466.2,204.7z"/>
				</g>
			</g>
		</g>
	</g>
	<g>
		<polygon class="st1" points="422,128.2 422,116.3 421,115.7 421,104 420,104 420,115.7 419,116.3 419,128.2 		"/>
	</g>
</g>
</svg>
